%TF.GenerationSoftware,KiCad,Pcbnew,10.0.5*%
%TF.CreationDate,2026-09-05T18:18:17-04:00*%
%TF.ProjectId,ADC_Board,4144435f-426f-4617-9264-2e6b69636164,rev?*%
%TF.SameCoordinates,Original*%
%TF.FileFunction,Soldermask,Bot*%
%TF.FilePolarity,Negative*%
%FSLAX46Y46*%
G04 Gerber Fmt 4.6, Leading zero omitted, Abs format (unit mm)*
G04 Created by KiCad (PCBNEW 10.0.5) date 2026-09-05 18:18:17*
%MOMM*%
%LPD*%
G01*
G04 APERTURE LIST*
G04 Aperture macros list*
%AMRoundRect*
0 Rectangle with rounded corners*
0 $1 Rounding radius*
0 $2 $3 $4 $5 $6 $7 $8 $9 X,Y pos of 4 corners*
0 Add a 4 corners polygon primitive as box body*
4,1,4,$2,$3,$4,$5,$6,$7,$8,$9,$2,$3,0*
0 Add four circle primitives for the rounded corners*
1,1,$1+$1,$2,$3*
1,1,$1+$1,$4,$5*
1,1,$1+$1,$6,$7*
1,1,$1+$1,$8,$9*
0 Add four rect primitives between the rounded corners*
20,1,$1+$1,$2,$3,$4,$5,0*
20,1,$1+$1,$4,$5,$6,$7,0*
20,1,$1+$1,$6,$7,$8,$9,0*
20,1,$1+$1,$8,$9,$2,$3,0*%
G04 Aperture macros list end*
%ADD10R,0.900000X1.000000*%
%ADD11R,1.500000X1.500000*%
%ADD12C,1.600000*%
%ADD13RoundRect,0.250000X0.550000X0.550000X-0.550000X0.550000X-0.550000X-0.550000X0.550000X-0.550000X0*%
%ADD14R,6.500000X6.500000*%
%ADD15C,6.500000*%
%ADD16C,3.700000*%
%ADD17RoundRect,0.225000X-0.475000X0.225000X-0.475000X-0.225000X0.475000X-0.225000X0.475000X0.225000X0*%
%ADD18O,1.400000X0.900000*%
%ADD19C,2.000000*%
%ADD20C,5.794000*%
%ADD21RoundRect,0.237500X0.250000X0.237500X-0.250000X0.237500X-0.250000X-0.237500X0.250000X-0.237500X0*%
%ADD22RoundRect,0.062500X-0.117500X-0.062500X0.117500X-0.062500X0.117500X0.062500X-0.117500X0.062500X0*%
%ADD23RoundRect,0.250001X0.624999X-0.462499X0.624999X0.462499X-0.624999X0.462499X-0.624999X-0.462499X0*%
%ADD24RoundRect,0.237500X0.237500X-0.300000X0.237500X0.300000X-0.237500X0.300000X-0.237500X-0.300000X0*%
%ADD25RoundRect,0.237500X-0.300000X-0.237500X0.300000X-0.237500X0.300000X0.237500X-0.300000X0.237500X0*%
%ADD26RoundRect,0.112500X0.112500X-0.350000X0.112500X0.350000X-0.112500X0.350000X-0.112500X-0.350000X0*%
%ADD27RoundRect,0.237500X0.300000X0.237500X-0.300000X0.237500X-0.300000X-0.237500X0.300000X-0.237500X0*%
%ADD28RoundRect,0.112500X-0.112500X0.350000X-0.112500X-0.350000X0.112500X-0.350000X0.112500X0.350000X0*%
%ADD29RoundRect,0.112500X-0.350000X-0.112500X0.350000X-0.112500X0.350000X0.112500X-0.350000X0.112500X0*%
%ADD30RoundRect,0.112500X0.350000X0.112500X-0.350000X0.112500X-0.350000X-0.112500X0.350000X-0.112500X0*%
%ADD31RoundRect,0.237500X-0.250000X-0.237500X0.250000X-0.237500X0.250000X0.237500X-0.250000X0.237500X0*%
%ADD32RoundRect,0.125000X-0.125000X0.625000X-0.125000X-0.625000X0.125000X-0.625000X0.125000X0.625000X0*%
%ADD33RoundRect,0.125000X-0.625000X0.125000X-0.625000X-0.125000X0.625000X-0.125000X0.625000X0.125000X0*%
G04 APERTURE END LIST*
D10*
%TO.C,Y1*%
X58650000Y-142550000D03*
X58650000Y-144700000D03*
X60200000Y-144700000D03*
X60200000Y-142550000D03*
%TD*%
D11*
%TO.C,TP8*%
X134150000Y-74400000D03*
%TD*%
%TO.C,TP7*%
X137400000Y-96000000D03*
%TD*%
D12*
%TO.C,C55*%
X124500000Y-140225000D03*
X127000000Y-140225000D03*
%TD*%
D13*
%TO.C,C29*%
X68252651Y-101600000D03*
D12*
X64752651Y-101600000D03*
%TD*%
D11*
%TO.C,TP5*%
X137400000Y-146500000D03*
%TD*%
D14*
%TO.C,J10*%
X133800000Y-165500000D03*
D15*
X133800000Y-155500000D03*
%TD*%
D14*
%TO.C,J8*%
X133950000Y-90750000D03*
D15*
X133950000Y-80750000D03*
%TD*%
D16*
%TO.C,H2*%
X89350000Y-167100000D03*
%TD*%
D12*
%TO.C,C46*%
X127000000Y-114800000D03*
X124500000Y-114800000D03*
%TD*%
%TO.C,C19*%
X124550000Y-91150000D03*
X127050000Y-91150000D03*
%TD*%
%TO.C,C47*%
X113002651Y-113300000D03*
D13*
X116502651Y-113300000D03*
%TD*%
D12*
%TO.C,C37*%
X124400000Y-165900000D03*
X126900000Y-165900000D03*
%TD*%
D11*
%TO.C,TP1*%
X137400000Y-149300000D03*
%TD*%
D13*
%TO.C,C31*%
X68252651Y-91200000D03*
D12*
X64752651Y-91200000D03*
%TD*%
D13*
%TO.C,C20*%
X116552651Y-89650000D03*
D12*
X113052651Y-89650000D03*
%TD*%
D11*
%TO.C,TP4*%
X137450000Y-123100000D03*
%TD*%
%TO.C,TP3*%
X137400000Y-98500000D03*
%TD*%
D13*
%TO.C,C38*%
X116402651Y-164400000D03*
D12*
X112902651Y-164400000D03*
%TD*%
D13*
%TO.C,C32*%
X68252651Y-81200000D03*
D12*
X64752651Y-81200000D03*
%TD*%
D16*
%TO.C,H1*%
X56250000Y-88500000D03*
%TD*%
D17*
%TO.C,J9*%
X68150000Y-129400000D03*
D18*
X68150000Y-130650000D03*
X68150000Y-131900000D03*
X68150000Y-133150000D03*
X68150000Y-134400000D03*
X68150000Y-135650000D03*
X68150000Y-136900000D03*
%TD*%
D14*
%TO.C,J7*%
X55500000Y-77500000D03*
D15*
X45500000Y-77500000D03*
%TD*%
D19*
%TO.C,SW1*%
X49250000Y-133500000D03*
X42750000Y-133500000D03*
X49250000Y-129000000D03*
X42750000Y-129000000D03*
%TD*%
D11*
%TO.C,TP2*%
X137100000Y-74400000D03*
%TD*%
D13*
%TO.C,C56*%
X116502651Y-138725000D03*
D12*
X113002651Y-138725000D03*
%TD*%
D15*
%TO.C,J11*%
X133900000Y-104400000D03*
D14*
X133900000Y-114400000D03*
%TD*%
%TO.C,J12*%
X133900000Y-139825000D03*
D15*
X133900000Y-129825000D03*
%TD*%
D20*
%TO.C,F4*%
X46000000Y-87815000D03*
X46000000Y-96145000D03*
X46000000Y-108845000D03*
X46000000Y-117175000D03*
%TD*%
D16*
%TO.C,H3*%
X94600000Y-115300000D03*
%TD*%
D11*
%TO.C,TP6*%
X137450000Y-120600000D03*
%TD*%
D21*
%TO.C,R14*%
X46562500Y-158750000D03*
X44737500Y-158750000D03*
%TD*%
D22*
%TO.C,D23*%
X66197500Y-130650000D03*
X65357500Y-130650000D03*
%TD*%
D23*
%TO.C,F5*%
X42350000Y-150487500D03*
X42350000Y-147512500D03*
%TD*%
D22*
%TO.C,D25*%
X66197500Y-135650000D03*
X65357500Y-135650000D03*
%TD*%
D24*
%TO.C,C49*%
X74150000Y-151512500D03*
X74150000Y-149787500D03*
%TD*%
D21*
%TO.C,R9*%
X60412500Y-140900000D03*
X58587500Y-140900000D03*
%TD*%
D25*
%TO.C,C40*%
X69737500Y-145250000D03*
X71462500Y-145250000D03*
%TD*%
D26*
%TO.C,D35*%
X75100000Y-143637500D03*
X73800000Y-143637500D03*
X74450000Y-141862500D03*
%TD*%
%TO.C,D34*%
X78700000Y-143687500D03*
X77400000Y-143687500D03*
X78050000Y-141912500D03*
%TD*%
D21*
%TO.C,R8*%
X46600000Y-167750000D03*
X44775000Y-167750000D03*
%TD*%
D27*
%TO.C,C11*%
X46562500Y-140350000D03*
X44837500Y-140350000D03*
%TD*%
D22*
%TO.C,D21*%
X66197500Y-133150000D03*
X65357500Y-133150000D03*
%TD*%
D23*
%TO.C,F1*%
X42400000Y-167737500D03*
X42400000Y-164762500D03*
%TD*%
D21*
%TO.C,R21*%
X61012500Y-160800000D03*
X59187500Y-160800000D03*
%TD*%
D27*
%TO.C,C5*%
X46550000Y-165500000D03*
X44825000Y-165500000D03*
%TD*%
D25*
%TO.C,C58*%
X77037500Y-145250000D03*
X78762500Y-145250000D03*
%TD*%
D28*
%TO.C,D32*%
X75850000Y-149862500D03*
X77150000Y-149862500D03*
X76500000Y-151637500D03*
%TD*%
D29*
%TO.C,D27*%
X62312500Y-133850000D03*
X62312500Y-132550000D03*
X64087500Y-133200000D03*
%TD*%
D30*
%TO.C,D2*%
X64087500Y-135200000D03*
X64087500Y-136500000D03*
X62312500Y-135850000D03*
%TD*%
D25*
%TO.C,C4*%
X62137500Y-144350000D03*
X63862500Y-144350000D03*
%TD*%
D29*
%TO.C,D26*%
X62312500Y-139100000D03*
X62312500Y-137800000D03*
X64087500Y-138450000D03*
%TD*%
D21*
%TO.C,R17*%
X46562500Y-150500000D03*
X44737500Y-150500000D03*
%TD*%
D22*
%TO.C,D24*%
X66197500Y-136900000D03*
X65357500Y-136900000D03*
%TD*%
D24*
%TO.C,C9*%
X56800000Y-144362500D03*
X56800000Y-142637500D03*
%TD*%
D23*
%TO.C,F6*%
X42350000Y-142437500D03*
X42350000Y-139462500D03*
%TD*%
D21*
%TO.C,R67*%
X120437500Y-97300000D03*
X122262500Y-97300000D03*
%TD*%
D27*
%TO.C,C7*%
X46512500Y-156750000D03*
X44787500Y-156750000D03*
%TD*%
%TO.C,C10*%
X46512500Y-148500000D03*
X44787500Y-148500000D03*
%TD*%
D22*
%TO.C,D20*%
X66200000Y-134400000D03*
X65360000Y-134400000D03*
%TD*%
D31*
%TO.C,R50*%
X58587500Y-129050000D03*
X60412500Y-129050000D03*
%TD*%
%TO.C,R51*%
X58587500Y-136550000D03*
X60412500Y-136550000D03*
%TD*%
%TO.C,R49*%
X58587500Y-130950000D03*
X60412500Y-130950000D03*
%TD*%
%TO.C,R54*%
X58575000Y-134700000D03*
X60400000Y-134700000D03*
%TD*%
D26*
%TO.C,D29*%
X71450000Y-143637500D03*
X70150000Y-143637500D03*
X70800000Y-141862500D03*
%TD*%
D21*
%TO.C,R56*%
X122162500Y-148400000D03*
X120337500Y-148400000D03*
%TD*%
%TO.C,R20*%
X46612500Y-142450000D03*
X44787500Y-142450000D03*
%TD*%
D25*
%TO.C,C6*%
X62137500Y-142350000D03*
X63862500Y-142350000D03*
%TD*%
D31*
%TO.C,R53*%
X58587500Y-138450000D03*
X60412500Y-138450000D03*
%TD*%
D25*
%TO.C,C59*%
X73387500Y-145250000D03*
X75112500Y-145250000D03*
%TD*%
D22*
%TO.C,D22*%
X66197500Y-131900000D03*
X65357500Y-131900000D03*
%TD*%
D24*
%TO.C,C8*%
X66300000Y-144075000D03*
X66300000Y-142350000D03*
%TD*%
D23*
%TO.C,F3*%
X42400000Y-158737500D03*
X42400000Y-155762500D03*
%TD*%
D21*
%TO.C,R22*%
X61012500Y-158600000D03*
X59187500Y-158600000D03*
%TD*%
D32*
%TO.C,U2*%
X60200000Y-147675000D03*
X61000000Y-147675000D03*
X61800000Y-147675000D03*
X62600000Y-147675000D03*
X63400000Y-147675000D03*
X64200000Y-147675000D03*
X65000000Y-147675000D03*
X65800000Y-147675000D03*
D33*
X67175000Y-149050000D03*
X67175000Y-149850000D03*
X67175000Y-150650000D03*
X67175000Y-151450000D03*
X67175000Y-152250000D03*
X67175000Y-153050000D03*
X67175000Y-153850000D03*
X67175000Y-154650000D03*
D32*
X65800000Y-156025000D03*
X65000000Y-156025000D03*
X64200000Y-156025000D03*
X63400000Y-156025000D03*
X62600000Y-156025000D03*
X61800000Y-156025000D03*
X61000000Y-156025000D03*
X60200000Y-156025000D03*
D33*
X58825000Y-154650000D03*
X58825000Y-153850000D03*
X58825000Y-153050000D03*
X58825000Y-152250000D03*
X58825000Y-151450000D03*
X58825000Y-150650000D03*
X58825000Y-149850000D03*
X58825000Y-149050000D03*
%TD*%
D21*
%TO.C,R34*%
X122312500Y-73650000D03*
X120487500Y-73650000D03*
%TD*%
D31*
%TO.C,R48*%
X58587500Y-132850000D03*
X60412500Y-132850000D03*
%TD*%
D21*
%TO.C,R78*%
X122262500Y-122725000D03*
X120437500Y-122725000D03*
%TD*%
M02*
