M48
; DRILL file KiCad 10.0.5 date 2026-09-05T18:18:14
; FORMAT={-:-/ absolute / metric / decimal}
; #@! TF.CreationDate,2026-09-05T18:18:14-04:00
; #@! TF.GenerationSoftware,Kicad,Pcbnew,10.0.5
; #@! TF.FileFunction,Plated,1,4,PTH
FMAT,2
METRIC
; #@! TA.AperFunction,Plated,PTH,ViaDrill
T1C0.300
; #@! TA.AperFunction,Plated,PTH,ComponentDrill
T2C0.600
; #@! TA.AperFunction,Plated,PTH,ComponentDrill
T3C0.700
; #@! TA.AperFunction,Plated,PTH,ComponentDrill
T4C0.800
; #@! TA.AperFunction,Plated,PTH,ComponentDrill
T5C1.100
; #@! TA.AperFunction,Plated,PTH,ComponentDrill
T6C3.000
; #@! TA.AperFunction,Plated,PTH,ComponentDrill
T7C4.090
%
G90
G05
T1
X43.35Y-157.2
X43.4Y-148.95
X43.45Y-140.95
X43.7Y-166.6
X45.35Y-137.75
X45.35Y-145.85
X45.35Y-154.15
X45.4Y-163.2
X47.85Y-137.55
X47.85Y-145.5
X47.85Y-153.8
X47.85Y-162.75
X50.9Y-156.05
X51.2Y-151.8
X52.1Y-131.55
X52.7Y-139.75
X52.7Y-147.75
X52.7Y-165.05
X52.75Y-157.5
X52.75Y-166.55
X53.2Y-125.5
X53.65Y-160.2
X54.1Y-151.85
X54.3Y-124.3
X54.4Y-155.3
X54.4Y-157.1
X55.05Y-162.45
X55.3Y-130.5
X55.35Y-166.85
X55.35Y-168.75
X55.45Y-121.35
X55.45Y-133.5
X55.65Y-151.45
X55.8Y-150.0
X56.35Y-152.25
X56.55Y-128.35
X56.95Y-139.95
X57.0Y-145.55
X57.0Y-153.05
X57.1Y-146.9
X57.15Y-163.35
X57.15Y-164.45
X57.25Y-148.8
X57.4Y-134.7
X57.45Y-138.45
X57.5Y-122.9
X57.5Y-125.85
X57.5Y-136.6
X57.55Y-140.9
X57.6Y-157.2
X57.7Y-155.4
X57.75Y-158.6
X57.75Y-160.8
X58.15Y-165.1
X58.35Y-167.75
X58.35Y-169.7
X58.6Y-146.9
X58.65Y-163.1
X59.2Y-164.55
X59.4Y-156.95
X60.0Y-145.75
X60.6Y-126.9
X60.6Y-127.95
X60.75Y-163.05
X61.05Y-143.5
X61.5Y-145.35
X62.137Y-141.2
X62.5Y-150.1
X62.5Y-169.7
X62.55Y-167.75
X62.95Y-158.0
X63.15Y-139.7
X63.45Y-145.6
X63.5Y-168.55
X63.6Y-152.9
X63.8Y-141.0
X63.85Y-143.35
X63.85Y-170.0
X64.6Y-129.95
X64.65Y-137.5
X64.675Y-131.65
X64.7Y-134.4
X64.75Y-151.1
X64.95Y-160.35
X64.95Y-162.25
X65.0Y-153.65
X65.05Y-110.1
X65.05Y-111.1
X65.05Y-112.15
X65.05Y-113.15
X65.05Y-114.2
X65.05Y-115.2
X65.05Y-116.3
X65.05Y-117.3
X65.05Y-118.35
X65.05Y-119.35
X65.05Y-120.4
X65.05Y-121.4
X65.2Y-139.75
X65.35Y-170.0
X65.5Y-145.55
X65.7Y-160.75
X66.017Y-136.272
X66.25Y-141.0
X66.3Y-110.1
X66.3Y-111.1
X66.3Y-112.15
X66.3Y-113.15
X66.3Y-114.2
X66.3Y-115.2
X66.3Y-116.3
X66.3Y-117.3
X66.3Y-118.35
X66.3Y-119.35
X66.3Y-120.4
X66.3Y-121.4
X66.65Y-158.15
X66.75Y-133.75
X66.75Y-159.4
X66.75Y-169.2
X66.8Y-167.8
X67.1Y-145.35
X67.2Y-148.3
X67.25Y-146.9
X67.3Y-139.75
X67.45Y-110.1
X67.45Y-111.1
X67.45Y-112.15
X67.45Y-113.15
X67.45Y-114.2
X67.45Y-115.2
X67.45Y-116.3
X67.45Y-117.3
X67.45Y-118.35
X67.45Y-119.35
X67.45Y-120.4
X67.45Y-121.4
X67.45Y-142.75
X68.05Y-156.2
X68.1Y-165.95
X68.15Y-140.7
X68.15Y-167.3
X68.4Y-169.2
X68.5Y-146.85
X68.55Y-148.3
X68.6Y-143.65
X68.6Y-145.25
X68.75Y-110.1
X68.75Y-111.1
X68.75Y-112.15
X68.75Y-113.15
X68.75Y-114.2
X68.75Y-115.2
X68.75Y-116.3
X68.75Y-117.3
X68.75Y-118.35
X68.75Y-119.35
X68.75Y-120.4
X68.75Y-121.4
X69.35Y-149.05
X69.45Y-128.25
X69.5Y-130.1
X69.6Y-154.3
X69.65Y-131.65
X69.65Y-133.4
X69.65Y-141.85
X69.7Y-135.1
X69.85Y-137.15
X69.9Y-158.8
X69.95Y-148.2
X69.95Y-156.0
X70.0Y-110.1
X70.0Y-111.1
X70.0Y-112.15
X70.0Y-113.15
X70.0Y-114.2
X70.0Y-115.2
X70.0Y-116.3
X70.0Y-117.3
X70.0Y-118.35
X70.0Y-119.35
X70.0Y-120.4
X70.0Y-121.4
X70.2Y-163.05
X70.5Y-149.2
X70.55Y-130.9
X70.65Y-129.25
X70.7Y-132.55
X70.8Y-135.95
X70.85Y-139.0
X70.9Y-134.2
X71.0Y-137.7
X71.15Y-110.1
X71.15Y-111.1
X71.15Y-112.15
X71.15Y-113.15
X71.15Y-114.2
X71.15Y-115.2
X71.15Y-116.3
X71.15Y-117.3
X71.15Y-118.35
X71.15Y-119.35
X71.15Y-120.4
X71.15Y-121.4
X71.15Y-146.85
X71.2Y-148.55
X71.45Y-152.05
X72.25Y-154.75
X72.4Y-72.55
X72.4Y-73.55
X72.4Y-74.6
X72.4Y-75.6
X72.4Y-76.65
X72.4Y-77.65
X72.4Y-78.75
X72.4Y-79.75
X72.4Y-80.8
X72.4Y-81.8
X72.4Y-82.85
X72.4Y-83.85
X72.4Y-85.0
X72.4Y-86.0
X72.4Y-87.05
X72.4Y-88.05
X72.4Y-89.1
X72.4Y-90.1
X72.4Y-91.2
X72.4Y-92.2
X72.4Y-93.25
X72.4Y-94.25
X72.4Y-95.3
X72.4Y-96.3
X72.4Y-97.5
X72.4Y-98.5
X72.4Y-99.55
X72.4Y-100.55
X72.4Y-101.6
X72.4Y-102.6
X72.4Y-103.7
X72.4Y-104.7
X72.4Y-105.75
X72.4Y-106.75
X72.4Y-107.8
X72.4Y-108.8
X72.4Y-110.1
X72.4Y-111.1
X72.4Y-112.15
X72.4Y-113.15
X72.4Y-114.2
X72.4Y-115.2
X72.4Y-116.3
X72.4Y-117.3
X72.4Y-118.35
X72.4Y-119.35
X72.4Y-120.4
X72.4Y-121.4
X72.4Y-122.6
X72.4Y-123.6
X72.4Y-124.65
X72.4Y-125.65
X72.4Y-126.7
X72.4Y-127.7
X72.4Y-128.8
X72.4Y-129.8
X72.4Y-130.85
X72.4Y-131.85
X72.4Y-132.9
X72.4Y-133.9
X72.55Y-152.75
X72.85Y-151.6
X73.15Y-164.05
X73.35Y-169.8
X73.65Y-72.55
X73.65Y-73.55
X73.65Y-74.6
X73.65Y-75.6
X73.65Y-76.65
X73.65Y-77.65
X73.65Y-78.75
X73.65Y-79.75
X73.65Y-80.8
X73.65Y-81.8
X73.65Y-82.85
X73.65Y-83.85
X73.65Y-85.0
X73.65Y-86.0
X73.65Y-87.05
X73.65Y-88.05
X73.65Y-89.1
X73.65Y-90.1
X73.65Y-91.2
X73.65Y-92.2
X73.65Y-93.25
X73.65Y-94.25
X73.65Y-95.3
X73.65Y-96.3
X73.65Y-97.5
X73.65Y-98.5
X73.65Y-99.55
X73.65Y-100.55
X73.65Y-101.6
X73.65Y-102.6
X73.65Y-103.7
X73.65Y-104.7
X73.65Y-105.75
X73.65Y-106.75
X73.65Y-107.8
X73.65Y-108.8
X73.65Y-110.1
X73.65Y-111.1
X73.65Y-112.15
X73.65Y-113.15
X73.65Y-114.2
X73.65Y-115.2
X73.65Y-116.3
X73.65Y-117.3
X73.65Y-118.35
X73.65Y-119.35
X73.65Y-120.4
X73.65Y-121.4
X73.65Y-122.6
X73.65Y-123.6
X73.65Y-124.65
X73.65Y-125.65
X73.65Y-126.7
X73.65Y-127.7
X73.65Y-128.8
X73.65Y-129.8
X73.65Y-130.85
X73.65Y-131.85
X73.65Y-132.9
X73.65Y-133.9
X73.95Y-165.3
X74.05Y-161.75
X74.1Y-157.75
X74.4Y-167.35
X74.8Y-72.55
X74.8Y-73.55
X74.8Y-74.6
X74.8Y-75.6
X74.8Y-76.65
X74.8Y-77.65
X74.8Y-78.75
X74.8Y-79.75
X74.8Y-80.8
X74.8Y-81.8
X74.8Y-82.85
X74.8Y-83.85
X74.8Y-85.0
X74.8Y-86.0
X74.8Y-87.05
X74.8Y-88.05
X74.8Y-89.1
X74.8Y-90.1
X74.8Y-91.2
X74.8Y-92.2
X74.8Y-93.25
X74.8Y-94.25
X74.8Y-95.3
X74.8Y-96.3
X74.8Y-97.5
X74.8Y-98.5
X74.8Y-99.55
X74.8Y-100.55
X74.8Y-101.6
X74.8Y-102.6
X74.8Y-103.7
X74.8Y-104.7
X74.8Y-105.75
X74.8Y-106.75
X74.8Y-107.8
X74.8Y-108.8
X74.8Y-110.1
X74.8Y-111.1
X74.8Y-112.15
X74.8Y-113.15
X74.8Y-114.2
X74.8Y-115.2
X74.8Y-116.3
X74.8Y-117.3
X74.8Y-118.35
X74.8Y-119.35
X74.8Y-120.4
X74.8Y-121.4
X74.8Y-122.6
X74.8Y-123.6
X74.8Y-124.65
X74.8Y-125.65
X74.8Y-126.7
X74.8Y-127.7
X74.8Y-128.8
X74.8Y-129.8
X74.8Y-130.85
X74.8Y-131.85
X74.8Y-132.9
X74.8Y-133.9
X75.1Y-163.85
X75.4Y-169.9
X75.9Y-168.1
X76.4Y-169.2
X76.9Y-164.8
X77.6Y-166.35
X78.0Y-154.75
X78.05Y-155.95
X78.05Y-157.15
X78.85Y-158.4
X78.85Y-164.95
X79.1Y-167.7
X79.6Y-161.0
X80.4Y-159.6
X81.35Y-158.45
X81.45Y-129.3
X81.5Y-165.3
X81.7Y-162.1
X82.1Y-118.75
X82.1Y-144.5
X82.2Y-156.8
X82.3Y-102.75
X82.3Y-103.9
X82.4Y-80.2
X83.3Y-163.7
X83.45Y-79.15
X83.45Y-90.3
X84.15Y-102.75
X84.15Y-128.1
X85.2Y-114.3
X85.3Y-79.15
X85.3Y-90.75
X85.3Y-153.85
X85.65Y-139.85
X85.7Y-128.05
X86.3Y-102.65
X86.35Y-161.3
X86.45Y-110.25
X86.5Y-86.55
X86.55Y-113.65
X86.9Y-137.8
X88.0Y-111.25
X88.0Y-140.65
X88.0Y-162.3
X88.1Y-87.55
X88.65Y-136.75
X89.2Y-118.75
X89.65Y-144.5
X89.8Y-135.6
X89.85Y-110.2
X90.0Y-86.55
X94.65Y-158.75
X94.75Y-107.65
X94.75Y-133.075
X94.8Y-84.0
X95.75Y-84.5
X95.8Y-158.95
X95.9Y-107.9
X95.95Y-133.1
X95.95Y-162.2
X96.0Y-136.5
X96.1Y-87.5
X96.1Y-111.0
X96.155Y-83.705
X96.25Y-161.3
X96.35Y-110.2
X96.35Y-135.625
X96.4Y-86.55
X96.9Y-160.65
X97.05Y-135.1
X97.1Y-109.75
X97.15Y-167.85
X97.2Y-166.15
X97.2Y-166.95
X97.25Y-86.1
X97.35Y-142.15
X97.4Y-140.45
X97.4Y-141.25
X97.55Y-93.0
X97.6Y-91.3
X97.6Y-92.1
X98.1Y-166.15
X98.1Y-166.95
X98.1Y-167.85
X98.3Y-140.45
X98.3Y-141.25
X98.3Y-142.15
X98.5Y-91.3
X98.5Y-92.1
X98.5Y-93.0
X98.95Y-166.15
X98.95Y-166.95
X98.95Y-167.85
X99.05Y-115.05
X99.05Y-115.85
X99.05Y-116.75
X99.15Y-140.45
X99.15Y-141.25
X99.15Y-142.15
X99.35Y-91.3
X99.35Y-92.1
X99.35Y-93.0
X99.85Y-167.25
X99.85Y-168.05
X99.95Y-116.15
X99.95Y-116.95
X100.05Y-141.55
X100.05Y-142.35
X100.25Y-92.4
X100.25Y-93.2
X100.75Y-167.25
X100.75Y-168.05
X100.85Y-116.15
X100.85Y-116.95
X100.95Y-141.55
X100.95Y-142.35
X101.15Y-92.4
X101.15Y-93.2
X101.65Y-167.25
X101.65Y-168.05
X101.75Y-116.15
X101.75Y-116.95
X101.85Y-141.55
X101.85Y-142.35
X102.05Y-92.4
X102.05Y-93.2
X102.55Y-167.25
X102.55Y-168.05
X102.65Y-116.15
X102.65Y-116.95
X102.75Y-141.55
X102.75Y-142.35
X102.95Y-92.4
X102.95Y-93.2
X103.45Y-167.25
X103.45Y-168.05
X103.55Y-116.15
X103.55Y-116.95
X103.65Y-141.55
X103.65Y-142.35
X103.85Y-92.4
X103.85Y-93.2
X105.347Y-155.125
X105.447Y-104.025
X105.447Y-129.45
X105.497Y-80.375
X105.9Y-163.1
X106.0Y-112.0
X106.0Y-137.425
X106.05Y-88.35
X107.05Y-95.5
X107.05Y-146.55
X108.0Y-148.6
X108.1Y-97.5
X108.1Y-122.925
X108.75Y-73.45
X109.3Y-162.05
X109.4Y-136.4
X109.45Y-87.35
X109.45Y-87.35
X109.45Y-110.95
X110.1Y-75.2
X117.8Y-150.0
X118.0Y-124.3
X118.05Y-98.9
X118.15Y-75.25
X118.9Y-116.65
X119.1Y-142.1
X119.15Y-167.8
X119.3Y-92.95
X120.25Y-169.0
X120.4Y-118.1
X120.4Y-143.35
X120.45Y-94.35
X121.65Y-167.8
X121.75Y-93.05
X121.8Y-142.15
X121.95Y-116.75
X123.4Y-148.35
X123.55Y-73.6
X123.55Y-97.3
X123.65Y-122.75
X127.4Y-72.65
X135.75Y-98.15
X135.75Y-123.6
X135.75Y-149.2
T2
X68.15Y-129.4
X68.15Y-130.65
X68.15Y-131.9
X68.15Y-133.15
X68.15Y-134.4
X68.15Y-135.65
X68.15Y-136.9
T3
X134.15Y-74.4
X137.1Y-74.4
X137.4Y-96.0
X137.4Y-98.5
X137.4Y-146.5
X137.4Y-149.3
X137.45Y-120.6
X137.45Y-123.1
T4
X64.753Y-81.2
X64.753Y-91.2
X64.753Y-101.6
X68.253Y-81.2
X68.253Y-91.2
X68.253Y-101.6
X112.903Y-164.4
X113.003Y-113.3
X113.003Y-138.725
X113.053Y-89.65
X116.403Y-164.4
X116.503Y-113.3
X116.503Y-138.725
X116.553Y-89.65
X124.4Y-165.9
X124.5Y-114.8
X124.5Y-140.225
X124.55Y-91.15
X126.9Y-165.9
X127.0Y-114.8
X127.0Y-140.225
X127.05Y-91.15
T5
X42.75Y-129.0
X42.75Y-133.5
X49.25Y-129.0
X49.25Y-133.5
T6
X45.5Y-77.5
X55.5Y-77.5
X133.8Y-155.5
X133.8Y-165.5
X133.9Y-104.4
X133.9Y-114.4
X133.9Y-129.825
X133.9Y-139.825
X133.95Y-80.75
X133.95Y-90.75
T7
X46.0Y-87.815
X46.0Y-96.145
X46.0Y-108.845
X46.0Y-117.175
M30
