%TF.GenerationSoftware,KiCad,Pcbnew,10.0.5*%
%TF.CreationDate,2026-09-05T18:18:17-04:00*%
%TF.ProjectId,ADC_Board,4144435f-426f-4617-9264-2e6b69636164,rev?*%
%TF.SameCoordinates,Original*%
%TF.FileFunction,Legend,Bot*%
%TF.FilePolarity,Positive*%
%FSLAX46Y46*%
G04 Gerber Fmt 4.6, Leading zero omitted, Abs format (unit mm)*
G04 Created by KiCad (PCBNEW 10.0.5) date 2026-09-05 18:18:17*
%MOMM*%
%LPD*%
G01*
G04 APERTURE LIST*
%ADD10C,0.150000*%
%ADD11C,0.120000*%
G04 APERTURE END LIST*
D10*
X59901190Y-141153628D02*
X59901190Y-141629819D01*
X60234523Y-140629819D02*
X59901190Y-141153628D01*
X59901190Y-141153628D02*
X59567857Y-140629819D01*
X58710714Y-141629819D02*
X59282142Y-141629819D01*
X58996428Y-141629819D02*
X58996428Y-140629819D01*
X58996428Y-140629819D02*
X59091666Y-140772676D01*
X59091666Y-140772676D02*
X59186904Y-140867914D01*
X59186904Y-140867914D02*
X59282142Y-140915533D01*
X46292857Y-157774819D02*
X46626190Y-157298628D01*
X46864285Y-157774819D02*
X46864285Y-156774819D01*
X46864285Y-156774819D02*
X46483333Y-156774819D01*
X46483333Y-156774819D02*
X46388095Y-156822438D01*
X46388095Y-156822438D02*
X46340476Y-156870057D01*
X46340476Y-156870057D02*
X46292857Y-156965295D01*
X46292857Y-156965295D02*
X46292857Y-157108152D01*
X46292857Y-157108152D02*
X46340476Y-157203390D01*
X46340476Y-157203390D02*
X46388095Y-157251009D01*
X46388095Y-157251009D02*
X46483333Y-157298628D01*
X46483333Y-157298628D02*
X46864285Y-157298628D01*
X45340476Y-157774819D02*
X45911904Y-157774819D01*
X45626190Y-157774819D02*
X45626190Y-156774819D01*
X45626190Y-156774819D02*
X45721428Y-156917676D01*
X45721428Y-156917676D02*
X45816666Y-157012914D01*
X45816666Y-157012914D02*
X45911904Y-157060533D01*
X44483333Y-157108152D02*
X44483333Y-157774819D01*
X44721428Y-156727200D02*
X44959523Y-157441485D01*
X44959523Y-157441485D02*
X44340476Y-157441485D01*
X66991785Y-129904819D02*
X66991785Y-128904819D01*
X66991785Y-128904819D02*
X66753690Y-128904819D01*
X66753690Y-128904819D02*
X66610833Y-128952438D01*
X66610833Y-128952438D02*
X66515595Y-129047676D01*
X66515595Y-129047676D02*
X66467976Y-129142914D01*
X66467976Y-129142914D02*
X66420357Y-129333390D01*
X66420357Y-129333390D02*
X66420357Y-129476247D01*
X66420357Y-129476247D02*
X66467976Y-129666723D01*
X66467976Y-129666723D02*
X66515595Y-129761961D01*
X66515595Y-129761961D02*
X66610833Y-129857200D01*
X66610833Y-129857200D02*
X66753690Y-129904819D01*
X66753690Y-129904819D02*
X66991785Y-129904819D01*
X66039404Y-129000057D02*
X65991785Y-128952438D01*
X65991785Y-128952438D02*
X65896547Y-128904819D01*
X65896547Y-128904819D02*
X65658452Y-128904819D01*
X65658452Y-128904819D02*
X65563214Y-128952438D01*
X65563214Y-128952438D02*
X65515595Y-129000057D01*
X65515595Y-129000057D02*
X65467976Y-129095295D01*
X65467976Y-129095295D02*
X65467976Y-129190533D01*
X65467976Y-129190533D02*
X65515595Y-129333390D01*
X65515595Y-129333390D02*
X66087023Y-129904819D01*
X66087023Y-129904819D02*
X65467976Y-129904819D01*
X65134642Y-128904819D02*
X64515595Y-128904819D01*
X64515595Y-128904819D02*
X64848928Y-129285771D01*
X64848928Y-129285771D02*
X64706071Y-129285771D01*
X64706071Y-129285771D02*
X64610833Y-129333390D01*
X64610833Y-129333390D02*
X64563214Y-129381009D01*
X64563214Y-129381009D02*
X64515595Y-129476247D01*
X64515595Y-129476247D02*
X64515595Y-129714342D01*
X64515595Y-129714342D02*
X64563214Y-129809580D01*
X64563214Y-129809580D02*
X64610833Y-129857200D01*
X64610833Y-129857200D02*
X64706071Y-129904819D01*
X64706071Y-129904819D02*
X64991785Y-129904819D01*
X64991785Y-129904819D02*
X65087023Y-129857200D01*
X65087023Y-129857200D02*
X65134642Y-129809580D01*
X44111009Y-148666666D02*
X44111009Y-148333333D01*
X44634819Y-148333333D02*
X43634819Y-148333333D01*
X43634819Y-148333333D02*
X43634819Y-148809523D01*
X43634819Y-149666666D02*
X43634819Y-149190476D01*
X43634819Y-149190476D02*
X44111009Y-149142857D01*
X44111009Y-149142857D02*
X44063390Y-149190476D01*
X44063390Y-149190476D02*
X44015771Y-149285714D01*
X44015771Y-149285714D02*
X44015771Y-149523809D01*
X44015771Y-149523809D02*
X44063390Y-149619047D01*
X44063390Y-149619047D02*
X44111009Y-149666666D01*
X44111009Y-149666666D02*
X44206247Y-149714285D01*
X44206247Y-149714285D02*
X44444342Y-149714285D01*
X44444342Y-149714285D02*
X44539580Y-149666666D01*
X44539580Y-149666666D02*
X44587200Y-149619047D01*
X44587200Y-149619047D02*
X44634819Y-149523809D01*
X44634819Y-149523809D02*
X44634819Y-149285714D01*
X44634819Y-149285714D02*
X44587200Y-149190476D01*
X44587200Y-149190476D02*
X44539580Y-149142857D01*
X66991785Y-134904819D02*
X66991785Y-133904819D01*
X66991785Y-133904819D02*
X66753690Y-133904819D01*
X66753690Y-133904819D02*
X66610833Y-133952438D01*
X66610833Y-133952438D02*
X66515595Y-134047676D01*
X66515595Y-134047676D02*
X66467976Y-134142914D01*
X66467976Y-134142914D02*
X66420357Y-134333390D01*
X66420357Y-134333390D02*
X66420357Y-134476247D01*
X66420357Y-134476247D02*
X66467976Y-134666723D01*
X66467976Y-134666723D02*
X66515595Y-134761961D01*
X66515595Y-134761961D02*
X66610833Y-134857200D01*
X66610833Y-134857200D02*
X66753690Y-134904819D01*
X66753690Y-134904819D02*
X66991785Y-134904819D01*
X66039404Y-134000057D02*
X65991785Y-133952438D01*
X65991785Y-133952438D02*
X65896547Y-133904819D01*
X65896547Y-133904819D02*
X65658452Y-133904819D01*
X65658452Y-133904819D02*
X65563214Y-133952438D01*
X65563214Y-133952438D02*
X65515595Y-134000057D01*
X65515595Y-134000057D02*
X65467976Y-134095295D01*
X65467976Y-134095295D02*
X65467976Y-134190533D01*
X65467976Y-134190533D02*
X65515595Y-134333390D01*
X65515595Y-134333390D02*
X66087023Y-134904819D01*
X66087023Y-134904819D02*
X65467976Y-134904819D01*
X64563214Y-133904819D02*
X65039404Y-133904819D01*
X65039404Y-133904819D02*
X65087023Y-134381009D01*
X65087023Y-134381009D02*
X65039404Y-134333390D01*
X65039404Y-134333390D02*
X64944166Y-134285771D01*
X64944166Y-134285771D02*
X64706071Y-134285771D01*
X64706071Y-134285771D02*
X64610833Y-134333390D01*
X64610833Y-134333390D02*
X64563214Y-134381009D01*
X64563214Y-134381009D02*
X64515595Y-134476247D01*
X64515595Y-134476247D02*
X64515595Y-134714342D01*
X64515595Y-134714342D02*
X64563214Y-134809580D01*
X64563214Y-134809580D02*
X64610833Y-134857200D01*
X64610833Y-134857200D02*
X64706071Y-134904819D01*
X64706071Y-134904819D02*
X64944166Y-134904819D01*
X64944166Y-134904819D02*
X65039404Y-134857200D01*
X65039404Y-134857200D02*
X65087023Y-134809580D01*
X75939580Y-150007142D02*
X75987200Y-149959523D01*
X75987200Y-149959523D02*
X76034819Y-149816666D01*
X76034819Y-149816666D02*
X76034819Y-149721428D01*
X76034819Y-149721428D02*
X75987200Y-149578571D01*
X75987200Y-149578571D02*
X75891961Y-149483333D01*
X75891961Y-149483333D02*
X75796723Y-149435714D01*
X75796723Y-149435714D02*
X75606247Y-149388095D01*
X75606247Y-149388095D02*
X75463390Y-149388095D01*
X75463390Y-149388095D02*
X75272914Y-149435714D01*
X75272914Y-149435714D02*
X75177676Y-149483333D01*
X75177676Y-149483333D02*
X75082438Y-149578571D01*
X75082438Y-149578571D02*
X75034819Y-149721428D01*
X75034819Y-149721428D02*
X75034819Y-149816666D01*
X75034819Y-149816666D02*
X75082438Y-149959523D01*
X75082438Y-149959523D02*
X75130057Y-150007142D01*
X75368152Y-150864285D02*
X76034819Y-150864285D01*
X74987200Y-150626190D02*
X75701485Y-150388095D01*
X75701485Y-150388095D02*
X75701485Y-151007142D01*
X76034819Y-151435714D02*
X76034819Y-151626190D01*
X76034819Y-151626190D02*
X75987200Y-151721428D01*
X75987200Y-151721428D02*
X75939580Y-151769047D01*
X75939580Y-151769047D02*
X75796723Y-151864285D01*
X75796723Y-151864285D02*
X75606247Y-151911904D01*
X75606247Y-151911904D02*
X75225295Y-151911904D01*
X75225295Y-151911904D02*
X75130057Y-151864285D01*
X75130057Y-151864285D02*
X75082438Y-151816666D01*
X75082438Y-151816666D02*
X75034819Y-151721428D01*
X75034819Y-151721428D02*
X75034819Y-151530952D01*
X75034819Y-151530952D02*
X75082438Y-151435714D01*
X75082438Y-151435714D02*
X75130057Y-151388095D01*
X75130057Y-151388095D02*
X75225295Y-151340476D01*
X75225295Y-151340476D02*
X75463390Y-151340476D01*
X75463390Y-151340476D02*
X75558628Y-151388095D01*
X75558628Y-151388095D02*
X75606247Y-151435714D01*
X75606247Y-151435714D02*
X75653866Y-151530952D01*
X75653866Y-151530952D02*
X75653866Y-151721428D01*
X75653866Y-151721428D02*
X75606247Y-151816666D01*
X75606247Y-151816666D02*
X75558628Y-151864285D01*
X75558628Y-151864285D02*
X75463390Y-151911904D01*
X59666666Y-139924819D02*
X59999999Y-139448628D01*
X60238094Y-139924819D02*
X60238094Y-138924819D01*
X60238094Y-138924819D02*
X59857142Y-138924819D01*
X59857142Y-138924819D02*
X59761904Y-138972438D01*
X59761904Y-138972438D02*
X59714285Y-139020057D01*
X59714285Y-139020057D02*
X59666666Y-139115295D01*
X59666666Y-139115295D02*
X59666666Y-139258152D01*
X59666666Y-139258152D02*
X59714285Y-139353390D01*
X59714285Y-139353390D02*
X59761904Y-139401009D01*
X59761904Y-139401009D02*
X59857142Y-139448628D01*
X59857142Y-139448628D02*
X60238094Y-139448628D01*
X59190475Y-139924819D02*
X58999999Y-139924819D01*
X58999999Y-139924819D02*
X58904761Y-139877200D01*
X58904761Y-139877200D02*
X58857142Y-139829580D01*
X58857142Y-139829580D02*
X58761904Y-139686723D01*
X58761904Y-139686723D02*
X58714285Y-139496247D01*
X58714285Y-139496247D02*
X58714285Y-139115295D01*
X58714285Y-139115295D02*
X58761904Y-139020057D01*
X58761904Y-139020057D02*
X58809523Y-138972438D01*
X58809523Y-138972438D02*
X58904761Y-138924819D01*
X58904761Y-138924819D02*
X59095237Y-138924819D01*
X59095237Y-138924819D02*
X59190475Y-138972438D01*
X59190475Y-138972438D02*
X59238094Y-139020057D01*
X59238094Y-139020057D02*
X59285713Y-139115295D01*
X59285713Y-139115295D02*
X59285713Y-139353390D01*
X59285713Y-139353390D02*
X59238094Y-139448628D01*
X59238094Y-139448628D02*
X59190475Y-139496247D01*
X59190475Y-139496247D02*
X59095237Y-139543866D01*
X59095237Y-139543866D02*
X58904761Y-139543866D01*
X58904761Y-139543866D02*
X58809523Y-139496247D01*
X58809523Y-139496247D02*
X58761904Y-139448628D01*
X58761904Y-139448628D02*
X58714285Y-139353390D01*
X71242857Y-147039580D02*
X71290476Y-147087200D01*
X71290476Y-147087200D02*
X71433333Y-147134819D01*
X71433333Y-147134819D02*
X71528571Y-147134819D01*
X71528571Y-147134819D02*
X71671428Y-147087200D01*
X71671428Y-147087200D02*
X71766666Y-146991961D01*
X71766666Y-146991961D02*
X71814285Y-146896723D01*
X71814285Y-146896723D02*
X71861904Y-146706247D01*
X71861904Y-146706247D02*
X71861904Y-146563390D01*
X71861904Y-146563390D02*
X71814285Y-146372914D01*
X71814285Y-146372914D02*
X71766666Y-146277676D01*
X71766666Y-146277676D02*
X71671428Y-146182438D01*
X71671428Y-146182438D02*
X71528571Y-146134819D01*
X71528571Y-146134819D02*
X71433333Y-146134819D01*
X71433333Y-146134819D02*
X71290476Y-146182438D01*
X71290476Y-146182438D02*
X71242857Y-146230057D01*
X70385714Y-146468152D02*
X70385714Y-147134819D01*
X70623809Y-146087200D02*
X70861904Y-146801485D01*
X70861904Y-146801485D02*
X70242857Y-146801485D01*
X69671428Y-146134819D02*
X69576190Y-146134819D01*
X69576190Y-146134819D02*
X69480952Y-146182438D01*
X69480952Y-146182438D02*
X69433333Y-146230057D01*
X69433333Y-146230057D02*
X69385714Y-146325295D01*
X69385714Y-146325295D02*
X69338095Y-146515771D01*
X69338095Y-146515771D02*
X69338095Y-146753866D01*
X69338095Y-146753866D02*
X69385714Y-146944342D01*
X69385714Y-146944342D02*
X69433333Y-147039580D01*
X69433333Y-147039580D02*
X69480952Y-147087200D01*
X69480952Y-147087200D02*
X69576190Y-147134819D01*
X69576190Y-147134819D02*
X69671428Y-147134819D01*
X69671428Y-147134819D02*
X69766666Y-147087200D01*
X69766666Y-147087200D02*
X69814285Y-147039580D01*
X69814285Y-147039580D02*
X69861904Y-146944342D01*
X69861904Y-146944342D02*
X69909523Y-146753866D01*
X69909523Y-146753866D02*
X69909523Y-146515771D01*
X69909523Y-146515771D02*
X69861904Y-146325295D01*
X69861904Y-146325295D02*
X69814285Y-146230057D01*
X69814285Y-146230057D02*
X69766666Y-146182438D01*
X69766666Y-146182438D02*
X69671428Y-146134819D01*
X76704819Y-141535714D02*
X75704819Y-141535714D01*
X75704819Y-141535714D02*
X75704819Y-141773809D01*
X75704819Y-141773809D02*
X75752438Y-141916666D01*
X75752438Y-141916666D02*
X75847676Y-142011904D01*
X75847676Y-142011904D02*
X75942914Y-142059523D01*
X75942914Y-142059523D02*
X76133390Y-142107142D01*
X76133390Y-142107142D02*
X76276247Y-142107142D01*
X76276247Y-142107142D02*
X76466723Y-142059523D01*
X76466723Y-142059523D02*
X76561961Y-142011904D01*
X76561961Y-142011904D02*
X76657200Y-141916666D01*
X76657200Y-141916666D02*
X76704819Y-141773809D01*
X76704819Y-141773809D02*
X76704819Y-141535714D01*
X75704819Y-142440476D02*
X75704819Y-143059523D01*
X75704819Y-143059523D02*
X76085771Y-142726190D01*
X76085771Y-142726190D02*
X76085771Y-142869047D01*
X76085771Y-142869047D02*
X76133390Y-142964285D01*
X76133390Y-142964285D02*
X76181009Y-143011904D01*
X76181009Y-143011904D02*
X76276247Y-143059523D01*
X76276247Y-143059523D02*
X76514342Y-143059523D01*
X76514342Y-143059523D02*
X76609580Y-143011904D01*
X76609580Y-143011904D02*
X76657200Y-142964285D01*
X76657200Y-142964285D02*
X76704819Y-142869047D01*
X76704819Y-142869047D02*
X76704819Y-142583333D01*
X76704819Y-142583333D02*
X76657200Y-142488095D01*
X76657200Y-142488095D02*
X76609580Y-142440476D01*
X75704819Y-143964285D02*
X75704819Y-143488095D01*
X75704819Y-143488095D02*
X76181009Y-143440476D01*
X76181009Y-143440476D02*
X76133390Y-143488095D01*
X76133390Y-143488095D02*
X76085771Y-143583333D01*
X76085771Y-143583333D02*
X76085771Y-143821428D01*
X76085771Y-143821428D02*
X76133390Y-143916666D01*
X76133390Y-143916666D02*
X76181009Y-143964285D01*
X76181009Y-143964285D02*
X76276247Y-144011904D01*
X76276247Y-144011904D02*
X76514342Y-144011904D01*
X76514342Y-144011904D02*
X76609580Y-143964285D01*
X76609580Y-143964285D02*
X76657200Y-143916666D01*
X76657200Y-143916666D02*
X76704819Y-143821428D01*
X76704819Y-143821428D02*
X76704819Y-143583333D01*
X76704819Y-143583333D02*
X76657200Y-143488095D01*
X76657200Y-143488095D02*
X76609580Y-143440476D01*
X80304819Y-141585714D02*
X79304819Y-141585714D01*
X79304819Y-141585714D02*
X79304819Y-141823809D01*
X79304819Y-141823809D02*
X79352438Y-141966666D01*
X79352438Y-141966666D02*
X79447676Y-142061904D01*
X79447676Y-142061904D02*
X79542914Y-142109523D01*
X79542914Y-142109523D02*
X79733390Y-142157142D01*
X79733390Y-142157142D02*
X79876247Y-142157142D01*
X79876247Y-142157142D02*
X80066723Y-142109523D01*
X80066723Y-142109523D02*
X80161961Y-142061904D01*
X80161961Y-142061904D02*
X80257200Y-141966666D01*
X80257200Y-141966666D02*
X80304819Y-141823809D01*
X80304819Y-141823809D02*
X80304819Y-141585714D01*
X79304819Y-142490476D02*
X79304819Y-143109523D01*
X79304819Y-143109523D02*
X79685771Y-142776190D01*
X79685771Y-142776190D02*
X79685771Y-142919047D01*
X79685771Y-142919047D02*
X79733390Y-143014285D01*
X79733390Y-143014285D02*
X79781009Y-143061904D01*
X79781009Y-143061904D02*
X79876247Y-143109523D01*
X79876247Y-143109523D02*
X80114342Y-143109523D01*
X80114342Y-143109523D02*
X80209580Y-143061904D01*
X80209580Y-143061904D02*
X80257200Y-143014285D01*
X80257200Y-143014285D02*
X80304819Y-142919047D01*
X80304819Y-142919047D02*
X80304819Y-142633333D01*
X80304819Y-142633333D02*
X80257200Y-142538095D01*
X80257200Y-142538095D02*
X80209580Y-142490476D01*
X79638152Y-143966666D02*
X80304819Y-143966666D01*
X79257200Y-143728571D02*
X79971485Y-143490476D01*
X79971485Y-143490476D02*
X79971485Y-144109523D01*
X45854166Y-166774819D02*
X46187499Y-166298628D01*
X46425594Y-166774819D02*
X46425594Y-165774819D01*
X46425594Y-165774819D02*
X46044642Y-165774819D01*
X46044642Y-165774819D02*
X45949404Y-165822438D01*
X45949404Y-165822438D02*
X45901785Y-165870057D01*
X45901785Y-165870057D02*
X45854166Y-165965295D01*
X45854166Y-165965295D02*
X45854166Y-166108152D01*
X45854166Y-166108152D02*
X45901785Y-166203390D01*
X45901785Y-166203390D02*
X45949404Y-166251009D01*
X45949404Y-166251009D02*
X46044642Y-166298628D01*
X46044642Y-166298628D02*
X46425594Y-166298628D01*
X45282737Y-166203390D02*
X45377975Y-166155771D01*
X45377975Y-166155771D02*
X45425594Y-166108152D01*
X45425594Y-166108152D02*
X45473213Y-166012914D01*
X45473213Y-166012914D02*
X45473213Y-165965295D01*
X45473213Y-165965295D02*
X45425594Y-165870057D01*
X45425594Y-165870057D02*
X45377975Y-165822438D01*
X45377975Y-165822438D02*
X45282737Y-165774819D01*
X45282737Y-165774819D02*
X45092261Y-165774819D01*
X45092261Y-165774819D02*
X44997023Y-165822438D01*
X44997023Y-165822438D02*
X44949404Y-165870057D01*
X44949404Y-165870057D02*
X44901785Y-165965295D01*
X44901785Y-165965295D02*
X44901785Y-166012914D01*
X44901785Y-166012914D02*
X44949404Y-166108152D01*
X44949404Y-166108152D02*
X44997023Y-166155771D01*
X44997023Y-166155771D02*
X45092261Y-166203390D01*
X45092261Y-166203390D02*
X45282737Y-166203390D01*
X45282737Y-166203390D02*
X45377975Y-166251009D01*
X45377975Y-166251009D02*
X45425594Y-166298628D01*
X45425594Y-166298628D02*
X45473213Y-166393866D01*
X45473213Y-166393866D02*
X45473213Y-166584342D01*
X45473213Y-166584342D02*
X45425594Y-166679580D01*
X45425594Y-166679580D02*
X45377975Y-166727200D01*
X45377975Y-166727200D02*
X45282737Y-166774819D01*
X45282737Y-166774819D02*
X45092261Y-166774819D01*
X45092261Y-166774819D02*
X44997023Y-166727200D01*
X44997023Y-166727200D02*
X44949404Y-166679580D01*
X44949404Y-166679580D02*
X44901785Y-166584342D01*
X44901785Y-166584342D02*
X44901785Y-166393866D01*
X44901785Y-166393866D02*
X44949404Y-166298628D01*
X44949404Y-166298628D02*
X44997023Y-166251009D01*
X44997023Y-166251009D02*
X45092261Y-166203390D01*
X46342857Y-139279580D02*
X46390476Y-139327200D01*
X46390476Y-139327200D02*
X46533333Y-139374819D01*
X46533333Y-139374819D02*
X46628571Y-139374819D01*
X46628571Y-139374819D02*
X46771428Y-139327200D01*
X46771428Y-139327200D02*
X46866666Y-139231961D01*
X46866666Y-139231961D02*
X46914285Y-139136723D01*
X46914285Y-139136723D02*
X46961904Y-138946247D01*
X46961904Y-138946247D02*
X46961904Y-138803390D01*
X46961904Y-138803390D02*
X46914285Y-138612914D01*
X46914285Y-138612914D02*
X46866666Y-138517676D01*
X46866666Y-138517676D02*
X46771428Y-138422438D01*
X46771428Y-138422438D02*
X46628571Y-138374819D01*
X46628571Y-138374819D02*
X46533333Y-138374819D01*
X46533333Y-138374819D02*
X46390476Y-138422438D01*
X46390476Y-138422438D02*
X46342857Y-138470057D01*
X45390476Y-139374819D02*
X45961904Y-139374819D01*
X45676190Y-139374819D02*
X45676190Y-138374819D01*
X45676190Y-138374819D02*
X45771428Y-138517676D01*
X45771428Y-138517676D02*
X45866666Y-138612914D01*
X45866666Y-138612914D02*
X45961904Y-138660533D01*
X44438095Y-139374819D02*
X45009523Y-139374819D01*
X44723809Y-139374819D02*
X44723809Y-138374819D01*
X44723809Y-138374819D02*
X44819047Y-138517676D01*
X44819047Y-138517676D02*
X44914285Y-138612914D01*
X44914285Y-138612914D02*
X45009523Y-138660533D01*
X66991785Y-132404819D02*
X66991785Y-131404819D01*
X66991785Y-131404819D02*
X66753690Y-131404819D01*
X66753690Y-131404819D02*
X66610833Y-131452438D01*
X66610833Y-131452438D02*
X66515595Y-131547676D01*
X66515595Y-131547676D02*
X66467976Y-131642914D01*
X66467976Y-131642914D02*
X66420357Y-131833390D01*
X66420357Y-131833390D02*
X66420357Y-131976247D01*
X66420357Y-131976247D02*
X66467976Y-132166723D01*
X66467976Y-132166723D02*
X66515595Y-132261961D01*
X66515595Y-132261961D02*
X66610833Y-132357200D01*
X66610833Y-132357200D02*
X66753690Y-132404819D01*
X66753690Y-132404819D02*
X66991785Y-132404819D01*
X66039404Y-131500057D02*
X65991785Y-131452438D01*
X65991785Y-131452438D02*
X65896547Y-131404819D01*
X65896547Y-131404819D02*
X65658452Y-131404819D01*
X65658452Y-131404819D02*
X65563214Y-131452438D01*
X65563214Y-131452438D02*
X65515595Y-131500057D01*
X65515595Y-131500057D02*
X65467976Y-131595295D01*
X65467976Y-131595295D02*
X65467976Y-131690533D01*
X65467976Y-131690533D02*
X65515595Y-131833390D01*
X65515595Y-131833390D02*
X66087023Y-132404819D01*
X66087023Y-132404819D02*
X65467976Y-132404819D01*
X64515595Y-132404819D02*
X65087023Y-132404819D01*
X64801309Y-132404819D02*
X64801309Y-131404819D01*
X64801309Y-131404819D02*
X64896547Y-131547676D01*
X64896547Y-131547676D02*
X64991785Y-131642914D01*
X64991785Y-131642914D02*
X65087023Y-131690533D01*
X44161009Y-165916666D02*
X44161009Y-165583333D01*
X44684819Y-165583333D02*
X43684819Y-165583333D01*
X43684819Y-165583333D02*
X43684819Y-166059523D01*
X44684819Y-166964285D02*
X44684819Y-166392857D01*
X44684819Y-166678571D02*
X43684819Y-166678571D01*
X43684819Y-166678571D02*
X43827676Y-166583333D01*
X43827676Y-166583333D02*
X43922914Y-166488095D01*
X43922914Y-166488095D02*
X43970533Y-166392857D01*
X60742857Y-159824819D02*
X61076190Y-159348628D01*
X61314285Y-159824819D02*
X61314285Y-158824819D01*
X61314285Y-158824819D02*
X60933333Y-158824819D01*
X60933333Y-158824819D02*
X60838095Y-158872438D01*
X60838095Y-158872438D02*
X60790476Y-158920057D01*
X60790476Y-158920057D02*
X60742857Y-159015295D01*
X60742857Y-159015295D02*
X60742857Y-159158152D01*
X60742857Y-159158152D02*
X60790476Y-159253390D01*
X60790476Y-159253390D02*
X60838095Y-159301009D01*
X60838095Y-159301009D02*
X60933333Y-159348628D01*
X60933333Y-159348628D02*
X61314285Y-159348628D01*
X60361904Y-158920057D02*
X60314285Y-158872438D01*
X60314285Y-158872438D02*
X60219047Y-158824819D01*
X60219047Y-158824819D02*
X59980952Y-158824819D01*
X59980952Y-158824819D02*
X59885714Y-158872438D01*
X59885714Y-158872438D02*
X59838095Y-158920057D01*
X59838095Y-158920057D02*
X59790476Y-159015295D01*
X59790476Y-159015295D02*
X59790476Y-159110533D01*
X59790476Y-159110533D02*
X59838095Y-159253390D01*
X59838095Y-159253390D02*
X60409523Y-159824819D01*
X60409523Y-159824819D02*
X59790476Y-159824819D01*
X58838095Y-159824819D02*
X59409523Y-159824819D01*
X59123809Y-159824819D02*
X59123809Y-158824819D01*
X59123809Y-158824819D02*
X59219047Y-158967676D01*
X59219047Y-158967676D02*
X59314285Y-159062914D01*
X59314285Y-159062914D02*
X59409523Y-159110533D01*
X45854166Y-164429580D02*
X45901785Y-164477200D01*
X45901785Y-164477200D02*
X46044642Y-164524819D01*
X46044642Y-164524819D02*
X46139880Y-164524819D01*
X46139880Y-164524819D02*
X46282737Y-164477200D01*
X46282737Y-164477200D02*
X46377975Y-164381961D01*
X46377975Y-164381961D02*
X46425594Y-164286723D01*
X46425594Y-164286723D02*
X46473213Y-164096247D01*
X46473213Y-164096247D02*
X46473213Y-163953390D01*
X46473213Y-163953390D02*
X46425594Y-163762914D01*
X46425594Y-163762914D02*
X46377975Y-163667676D01*
X46377975Y-163667676D02*
X46282737Y-163572438D01*
X46282737Y-163572438D02*
X46139880Y-163524819D01*
X46139880Y-163524819D02*
X46044642Y-163524819D01*
X46044642Y-163524819D02*
X45901785Y-163572438D01*
X45901785Y-163572438D02*
X45854166Y-163620057D01*
X44949404Y-163524819D02*
X45425594Y-163524819D01*
X45425594Y-163524819D02*
X45473213Y-164001009D01*
X45473213Y-164001009D02*
X45425594Y-163953390D01*
X45425594Y-163953390D02*
X45330356Y-163905771D01*
X45330356Y-163905771D02*
X45092261Y-163905771D01*
X45092261Y-163905771D02*
X44997023Y-163953390D01*
X44997023Y-163953390D02*
X44949404Y-164001009D01*
X44949404Y-164001009D02*
X44901785Y-164096247D01*
X44901785Y-164096247D02*
X44901785Y-164334342D01*
X44901785Y-164334342D02*
X44949404Y-164429580D01*
X44949404Y-164429580D02*
X44997023Y-164477200D01*
X44997023Y-164477200D02*
X45092261Y-164524819D01*
X45092261Y-164524819D02*
X45330356Y-164524819D01*
X45330356Y-164524819D02*
X45425594Y-164477200D01*
X45425594Y-164477200D02*
X45473213Y-164429580D01*
X78542857Y-147039580D02*
X78590476Y-147087200D01*
X78590476Y-147087200D02*
X78733333Y-147134819D01*
X78733333Y-147134819D02*
X78828571Y-147134819D01*
X78828571Y-147134819D02*
X78971428Y-147087200D01*
X78971428Y-147087200D02*
X79066666Y-146991961D01*
X79066666Y-146991961D02*
X79114285Y-146896723D01*
X79114285Y-146896723D02*
X79161904Y-146706247D01*
X79161904Y-146706247D02*
X79161904Y-146563390D01*
X79161904Y-146563390D02*
X79114285Y-146372914D01*
X79114285Y-146372914D02*
X79066666Y-146277676D01*
X79066666Y-146277676D02*
X78971428Y-146182438D01*
X78971428Y-146182438D02*
X78828571Y-146134819D01*
X78828571Y-146134819D02*
X78733333Y-146134819D01*
X78733333Y-146134819D02*
X78590476Y-146182438D01*
X78590476Y-146182438D02*
X78542857Y-146230057D01*
X77638095Y-146134819D02*
X78114285Y-146134819D01*
X78114285Y-146134819D02*
X78161904Y-146611009D01*
X78161904Y-146611009D02*
X78114285Y-146563390D01*
X78114285Y-146563390D02*
X78019047Y-146515771D01*
X78019047Y-146515771D02*
X77780952Y-146515771D01*
X77780952Y-146515771D02*
X77685714Y-146563390D01*
X77685714Y-146563390D02*
X77638095Y-146611009D01*
X77638095Y-146611009D02*
X77590476Y-146706247D01*
X77590476Y-146706247D02*
X77590476Y-146944342D01*
X77590476Y-146944342D02*
X77638095Y-147039580D01*
X77638095Y-147039580D02*
X77685714Y-147087200D01*
X77685714Y-147087200D02*
X77780952Y-147134819D01*
X77780952Y-147134819D02*
X78019047Y-147134819D01*
X78019047Y-147134819D02*
X78114285Y-147087200D01*
X78114285Y-147087200D02*
X78161904Y-147039580D01*
X77019047Y-146563390D02*
X77114285Y-146515771D01*
X77114285Y-146515771D02*
X77161904Y-146468152D01*
X77161904Y-146468152D02*
X77209523Y-146372914D01*
X77209523Y-146372914D02*
X77209523Y-146325295D01*
X77209523Y-146325295D02*
X77161904Y-146230057D01*
X77161904Y-146230057D02*
X77114285Y-146182438D01*
X77114285Y-146182438D02*
X77019047Y-146134819D01*
X77019047Y-146134819D02*
X76828571Y-146134819D01*
X76828571Y-146134819D02*
X76733333Y-146182438D01*
X76733333Y-146182438D02*
X76685714Y-146230057D01*
X76685714Y-146230057D02*
X76638095Y-146325295D01*
X76638095Y-146325295D02*
X76638095Y-146372914D01*
X76638095Y-146372914D02*
X76685714Y-146468152D01*
X76685714Y-146468152D02*
X76733333Y-146515771D01*
X76733333Y-146515771D02*
X76828571Y-146563390D01*
X76828571Y-146563390D02*
X77019047Y-146563390D01*
X77019047Y-146563390D02*
X77114285Y-146611009D01*
X77114285Y-146611009D02*
X77161904Y-146658628D01*
X77161904Y-146658628D02*
X77209523Y-146753866D01*
X77209523Y-146753866D02*
X77209523Y-146944342D01*
X77209523Y-146944342D02*
X77161904Y-147039580D01*
X77161904Y-147039580D02*
X77114285Y-147087200D01*
X77114285Y-147087200D02*
X77019047Y-147134819D01*
X77019047Y-147134819D02*
X76828571Y-147134819D01*
X76828571Y-147134819D02*
X76733333Y-147087200D01*
X76733333Y-147087200D02*
X76685714Y-147039580D01*
X76685714Y-147039580D02*
X76638095Y-146944342D01*
X76638095Y-146944342D02*
X76638095Y-146753866D01*
X76638095Y-146753866D02*
X76685714Y-146658628D01*
X76685714Y-146658628D02*
X76733333Y-146611009D01*
X76733333Y-146611009D02*
X76828571Y-146563390D01*
X75154819Y-149535714D02*
X74154819Y-149535714D01*
X74154819Y-149535714D02*
X74154819Y-149773809D01*
X74154819Y-149773809D02*
X74202438Y-149916666D01*
X74202438Y-149916666D02*
X74297676Y-150011904D01*
X74297676Y-150011904D02*
X74392914Y-150059523D01*
X74392914Y-150059523D02*
X74583390Y-150107142D01*
X74583390Y-150107142D02*
X74726247Y-150107142D01*
X74726247Y-150107142D02*
X74916723Y-150059523D01*
X74916723Y-150059523D02*
X75011961Y-150011904D01*
X75011961Y-150011904D02*
X75107200Y-149916666D01*
X75107200Y-149916666D02*
X75154819Y-149773809D01*
X75154819Y-149773809D02*
X75154819Y-149535714D01*
X74154819Y-150440476D02*
X74154819Y-151059523D01*
X74154819Y-151059523D02*
X74535771Y-150726190D01*
X74535771Y-150726190D02*
X74535771Y-150869047D01*
X74535771Y-150869047D02*
X74583390Y-150964285D01*
X74583390Y-150964285D02*
X74631009Y-151011904D01*
X74631009Y-151011904D02*
X74726247Y-151059523D01*
X74726247Y-151059523D02*
X74964342Y-151059523D01*
X74964342Y-151059523D02*
X75059580Y-151011904D01*
X75059580Y-151011904D02*
X75107200Y-150964285D01*
X75107200Y-150964285D02*
X75154819Y-150869047D01*
X75154819Y-150869047D02*
X75154819Y-150583333D01*
X75154819Y-150583333D02*
X75107200Y-150488095D01*
X75107200Y-150488095D02*
X75059580Y-150440476D01*
X74250057Y-151440476D02*
X74202438Y-151488095D01*
X74202438Y-151488095D02*
X74154819Y-151583333D01*
X74154819Y-151583333D02*
X74154819Y-151821428D01*
X74154819Y-151821428D02*
X74202438Y-151916666D01*
X74202438Y-151916666D02*
X74250057Y-151964285D01*
X74250057Y-151964285D02*
X74345295Y-152011904D01*
X74345295Y-152011904D02*
X74440533Y-152011904D01*
X74440533Y-152011904D02*
X74583390Y-151964285D01*
X74583390Y-151964285D02*
X75154819Y-151392857D01*
X75154819Y-151392857D02*
X75154819Y-152011904D01*
X64414285Y-135454819D02*
X64414285Y-134454819D01*
X64414285Y-134454819D02*
X64176190Y-134454819D01*
X64176190Y-134454819D02*
X64033333Y-134502438D01*
X64033333Y-134502438D02*
X63938095Y-134597676D01*
X63938095Y-134597676D02*
X63890476Y-134692914D01*
X63890476Y-134692914D02*
X63842857Y-134883390D01*
X63842857Y-134883390D02*
X63842857Y-135026247D01*
X63842857Y-135026247D02*
X63890476Y-135216723D01*
X63890476Y-135216723D02*
X63938095Y-135311961D01*
X63938095Y-135311961D02*
X64033333Y-135407200D01*
X64033333Y-135407200D02*
X64176190Y-135454819D01*
X64176190Y-135454819D02*
X64414285Y-135454819D01*
X63461904Y-134550057D02*
X63414285Y-134502438D01*
X63414285Y-134502438D02*
X63319047Y-134454819D01*
X63319047Y-134454819D02*
X63080952Y-134454819D01*
X63080952Y-134454819D02*
X62985714Y-134502438D01*
X62985714Y-134502438D02*
X62938095Y-134550057D01*
X62938095Y-134550057D02*
X62890476Y-134645295D01*
X62890476Y-134645295D02*
X62890476Y-134740533D01*
X62890476Y-134740533D02*
X62938095Y-134883390D01*
X62938095Y-134883390D02*
X63509523Y-135454819D01*
X63509523Y-135454819D02*
X62890476Y-135454819D01*
X62557142Y-134454819D02*
X61890476Y-134454819D01*
X61890476Y-134454819D02*
X62319047Y-135454819D01*
X63938094Y-134504819D02*
X63938094Y-133504819D01*
X63938094Y-133504819D02*
X63699999Y-133504819D01*
X63699999Y-133504819D02*
X63557142Y-133552438D01*
X63557142Y-133552438D02*
X63461904Y-133647676D01*
X63461904Y-133647676D02*
X63414285Y-133742914D01*
X63414285Y-133742914D02*
X63366666Y-133933390D01*
X63366666Y-133933390D02*
X63366666Y-134076247D01*
X63366666Y-134076247D02*
X63414285Y-134266723D01*
X63414285Y-134266723D02*
X63461904Y-134361961D01*
X63461904Y-134361961D02*
X63557142Y-134457200D01*
X63557142Y-134457200D02*
X63699999Y-134504819D01*
X63699999Y-134504819D02*
X63938094Y-134504819D01*
X62985713Y-133600057D02*
X62938094Y-133552438D01*
X62938094Y-133552438D02*
X62842856Y-133504819D01*
X62842856Y-133504819D02*
X62604761Y-133504819D01*
X62604761Y-133504819D02*
X62509523Y-133552438D01*
X62509523Y-133552438D02*
X62461904Y-133600057D01*
X62461904Y-133600057D02*
X62414285Y-133695295D01*
X62414285Y-133695295D02*
X62414285Y-133790533D01*
X62414285Y-133790533D02*
X62461904Y-133933390D01*
X62461904Y-133933390D02*
X63033332Y-134504819D01*
X63033332Y-134504819D02*
X62414285Y-134504819D01*
X63166666Y-146139580D02*
X63214285Y-146187200D01*
X63214285Y-146187200D02*
X63357142Y-146234819D01*
X63357142Y-146234819D02*
X63452380Y-146234819D01*
X63452380Y-146234819D02*
X63595237Y-146187200D01*
X63595237Y-146187200D02*
X63690475Y-146091961D01*
X63690475Y-146091961D02*
X63738094Y-145996723D01*
X63738094Y-145996723D02*
X63785713Y-145806247D01*
X63785713Y-145806247D02*
X63785713Y-145663390D01*
X63785713Y-145663390D02*
X63738094Y-145472914D01*
X63738094Y-145472914D02*
X63690475Y-145377676D01*
X63690475Y-145377676D02*
X63595237Y-145282438D01*
X63595237Y-145282438D02*
X63452380Y-145234819D01*
X63452380Y-145234819D02*
X63357142Y-145234819D01*
X63357142Y-145234819D02*
X63214285Y-145282438D01*
X63214285Y-145282438D02*
X63166666Y-145330057D01*
X62309523Y-145568152D02*
X62309523Y-146234819D01*
X62547618Y-145187200D02*
X62785713Y-145901485D01*
X62785713Y-145901485D02*
X62166666Y-145901485D01*
X64414285Y-140704819D02*
X64414285Y-139704819D01*
X64414285Y-139704819D02*
X64176190Y-139704819D01*
X64176190Y-139704819D02*
X64033333Y-139752438D01*
X64033333Y-139752438D02*
X63938095Y-139847676D01*
X63938095Y-139847676D02*
X63890476Y-139942914D01*
X63890476Y-139942914D02*
X63842857Y-140133390D01*
X63842857Y-140133390D02*
X63842857Y-140276247D01*
X63842857Y-140276247D02*
X63890476Y-140466723D01*
X63890476Y-140466723D02*
X63938095Y-140561961D01*
X63938095Y-140561961D02*
X64033333Y-140657200D01*
X64033333Y-140657200D02*
X64176190Y-140704819D01*
X64176190Y-140704819D02*
X64414285Y-140704819D01*
X63461904Y-139800057D02*
X63414285Y-139752438D01*
X63414285Y-139752438D02*
X63319047Y-139704819D01*
X63319047Y-139704819D02*
X63080952Y-139704819D01*
X63080952Y-139704819D02*
X62985714Y-139752438D01*
X62985714Y-139752438D02*
X62938095Y-139800057D01*
X62938095Y-139800057D02*
X62890476Y-139895295D01*
X62890476Y-139895295D02*
X62890476Y-139990533D01*
X62890476Y-139990533D02*
X62938095Y-140133390D01*
X62938095Y-140133390D02*
X63509523Y-140704819D01*
X63509523Y-140704819D02*
X62890476Y-140704819D01*
X62033333Y-139704819D02*
X62223809Y-139704819D01*
X62223809Y-139704819D02*
X62319047Y-139752438D01*
X62319047Y-139752438D02*
X62366666Y-139800057D01*
X62366666Y-139800057D02*
X62461904Y-139942914D01*
X62461904Y-139942914D02*
X62509523Y-140133390D01*
X62509523Y-140133390D02*
X62509523Y-140514342D01*
X62509523Y-140514342D02*
X62461904Y-140609580D01*
X62461904Y-140609580D02*
X62414285Y-140657200D01*
X62414285Y-140657200D02*
X62319047Y-140704819D01*
X62319047Y-140704819D02*
X62128571Y-140704819D01*
X62128571Y-140704819D02*
X62033333Y-140657200D01*
X62033333Y-140657200D02*
X61985714Y-140609580D01*
X61985714Y-140609580D02*
X61938095Y-140514342D01*
X61938095Y-140514342D02*
X61938095Y-140276247D01*
X61938095Y-140276247D02*
X61985714Y-140181009D01*
X61985714Y-140181009D02*
X62033333Y-140133390D01*
X62033333Y-140133390D02*
X62128571Y-140085771D01*
X62128571Y-140085771D02*
X62319047Y-140085771D01*
X62319047Y-140085771D02*
X62414285Y-140133390D01*
X62414285Y-140133390D02*
X62461904Y-140181009D01*
X62461904Y-140181009D02*
X62509523Y-140276247D01*
X46292857Y-149524819D02*
X46626190Y-149048628D01*
X46864285Y-149524819D02*
X46864285Y-148524819D01*
X46864285Y-148524819D02*
X46483333Y-148524819D01*
X46483333Y-148524819D02*
X46388095Y-148572438D01*
X46388095Y-148572438D02*
X46340476Y-148620057D01*
X46340476Y-148620057D02*
X46292857Y-148715295D01*
X46292857Y-148715295D02*
X46292857Y-148858152D01*
X46292857Y-148858152D02*
X46340476Y-148953390D01*
X46340476Y-148953390D02*
X46388095Y-149001009D01*
X46388095Y-149001009D02*
X46483333Y-149048628D01*
X46483333Y-149048628D02*
X46864285Y-149048628D01*
X45340476Y-149524819D02*
X45911904Y-149524819D01*
X45626190Y-149524819D02*
X45626190Y-148524819D01*
X45626190Y-148524819D02*
X45721428Y-148667676D01*
X45721428Y-148667676D02*
X45816666Y-148762914D01*
X45816666Y-148762914D02*
X45911904Y-148810533D01*
X45007142Y-148524819D02*
X44340476Y-148524819D01*
X44340476Y-148524819D02*
X44769047Y-149524819D01*
X66991785Y-136154819D02*
X66991785Y-135154819D01*
X66991785Y-135154819D02*
X66753690Y-135154819D01*
X66753690Y-135154819D02*
X66610833Y-135202438D01*
X66610833Y-135202438D02*
X66515595Y-135297676D01*
X66515595Y-135297676D02*
X66467976Y-135392914D01*
X66467976Y-135392914D02*
X66420357Y-135583390D01*
X66420357Y-135583390D02*
X66420357Y-135726247D01*
X66420357Y-135726247D02*
X66467976Y-135916723D01*
X66467976Y-135916723D02*
X66515595Y-136011961D01*
X66515595Y-136011961D02*
X66610833Y-136107200D01*
X66610833Y-136107200D02*
X66753690Y-136154819D01*
X66753690Y-136154819D02*
X66991785Y-136154819D01*
X66039404Y-135250057D02*
X65991785Y-135202438D01*
X65991785Y-135202438D02*
X65896547Y-135154819D01*
X65896547Y-135154819D02*
X65658452Y-135154819D01*
X65658452Y-135154819D02*
X65563214Y-135202438D01*
X65563214Y-135202438D02*
X65515595Y-135250057D01*
X65515595Y-135250057D02*
X65467976Y-135345295D01*
X65467976Y-135345295D02*
X65467976Y-135440533D01*
X65467976Y-135440533D02*
X65515595Y-135583390D01*
X65515595Y-135583390D02*
X66087023Y-136154819D01*
X66087023Y-136154819D02*
X65467976Y-136154819D01*
X64610833Y-135488152D02*
X64610833Y-136154819D01*
X64848928Y-135107200D02*
X65087023Y-135821485D01*
X65087023Y-135821485D02*
X64467976Y-135821485D01*
X58589580Y-143333333D02*
X58637200Y-143285714D01*
X58637200Y-143285714D02*
X58684819Y-143142857D01*
X58684819Y-143142857D02*
X58684819Y-143047619D01*
X58684819Y-143047619D02*
X58637200Y-142904762D01*
X58637200Y-142904762D02*
X58541961Y-142809524D01*
X58541961Y-142809524D02*
X58446723Y-142761905D01*
X58446723Y-142761905D02*
X58256247Y-142714286D01*
X58256247Y-142714286D02*
X58113390Y-142714286D01*
X58113390Y-142714286D02*
X57922914Y-142761905D01*
X57922914Y-142761905D02*
X57827676Y-142809524D01*
X57827676Y-142809524D02*
X57732438Y-142904762D01*
X57732438Y-142904762D02*
X57684819Y-143047619D01*
X57684819Y-143047619D02*
X57684819Y-143142857D01*
X57684819Y-143142857D02*
X57732438Y-143285714D01*
X57732438Y-143285714D02*
X57780057Y-143333333D01*
X58684819Y-143809524D02*
X58684819Y-144000000D01*
X58684819Y-144000000D02*
X58637200Y-144095238D01*
X58637200Y-144095238D02*
X58589580Y-144142857D01*
X58589580Y-144142857D02*
X58446723Y-144238095D01*
X58446723Y-144238095D02*
X58256247Y-144285714D01*
X58256247Y-144285714D02*
X57875295Y-144285714D01*
X57875295Y-144285714D02*
X57780057Y-144238095D01*
X57780057Y-144238095D02*
X57732438Y-144190476D01*
X57732438Y-144190476D02*
X57684819Y-144095238D01*
X57684819Y-144095238D02*
X57684819Y-143904762D01*
X57684819Y-143904762D02*
X57732438Y-143809524D01*
X57732438Y-143809524D02*
X57780057Y-143761905D01*
X57780057Y-143761905D02*
X57875295Y-143714286D01*
X57875295Y-143714286D02*
X58113390Y-143714286D01*
X58113390Y-143714286D02*
X58208628Y-143761905D01*
X58208628Y-143761905D02*
X58256247Y-143809524D01*
X58256247Y-143809524D02*
X58303866Y-143904762D01*
X58303866Y-143904762D02*
X58303866Y-144095238D01*
X58303866Y-144095238D02*
X58256247Y-144190476D01*
X58256247Y-144190476D02*
X58208628Y-144238095D01*
X58208628Y-144238095D02*
X58113390Y-144285714D01*
X44111009Y-140616666D02*
X44111009Y-140283333D01*
X44634819Y-140283333D02*
X43634819Y-140283333D01*
X43634819Y-140283333D02*
X43634819Y-140759523D01*
X43634819Y-141569047D02*
X43634819Y-141378571D01*
X43634819Y-141378571D02*
X43682438Y-141283333D01*
X43682438Y-141283333D02*
X43730057Y-141235714D01*
X43730057Y-141235714D02*
X43872914Y-141140476D01*
X43872914Y-141140476D02*
X44063390Y-141092857D01*
X44063390Y-141092857D02*
X44444342Y-141092857D01*
X44444342Y-141092857D02*
X44539580Y-141140476D01*
X44539580Y-141140476D02*
X44587200Y-141188095D01*
X44587200Y-141188095D02*
X44634819Y-141283333D01*
X44634819Y-141283333D02*
X44634819Y-141473809D01*
X44634819Y-141473809D02*
X44587200Y-141569047D01*
X44587200Y-141569047D02*
X44539580Y-141616666D01*
X44539580Y-141616666D02*
X44444342Y-141664285D01*
X44444342Y-141664285D02*
X44206247Y-141664285D01*
X44206247Y-141664285D02*
X44111009Y-141616666D01*
X44111009Y-141616666D02*
X44063390Y-141569047D01*
X44063390Y-141569047D02*
X44015771Y-141473809D01*
X44015771Y-141473809D02*
X44015771Y-141283333D01*
X44015771Y-141283333D02*
X44063390Y-141188095D01*
X44063390Y-141188095D02*
X44111009Y-141140476D01*
X44111009Y-141140476D02*
X44206247Y-141092857D01*
X121992857Y-96324819D02*
X122326190Y-95848628D01*
X122564285Y-96324819D02*
X122564285Y-95324819D01*
X122564285Y-95324819D02*
X122183333Y-95324819D01*
X122183333Y-95324819D02*
X122088095Y-95372438D01*
X122088095Y-95372438D02*
X122040476Y-95420057D01*
X122040476Y-95420057D02*
X121992857Y-95515295D01*
X121992857Y-95515295D02*
X121992857Y-95658152D01*
X121992857Y-95658152D02*
X122040476Y-95753390D01*
X122040476Y-95753390D02*
X122088095Y-95801009D01*
X122088095Y-95801009D02*
X122183333Y-95848628D01*
X122183333Y-95848628D02*
X122564285Y-95848628D01*
X121135714Y-95324819D02*
X121326190Y-95324819D01*
X121326190Y-95324819D02*
X121421428Y-95372438D01*
X121421428Y-95372438D02*
X121469047Y-95420057D01*
X121469047Y-95420057D02*
X121564285Y-95562914D01*
X121564285Y-95562914D02*
X121611904Y-95753390D01*
X121611904Y-95753390D02*
X121611904Y-96134342D01*
X121611904Y-96134342D02*
X121564285Y-96229580D01*
X121564285Y-96229580D02*
X121516666Y-96277200D01*
X121516666Y-96277200D02*
X121421428Y-96324819D01*
X121421428Y-96324819D02*
X121230952Y-96324819D01*
X121230952Y-96324819D02*
X121135714Y-96277200D01*
X121135714Y-96277200D02*
X121088095Y-96229580D01*
X121088095Y-96229580D02*
X121040476Y-96134342D01*
X121040476Y-96134342D02*
X121040476Y-95896247D01*
X121040476Y-95896247D02*
X121088095Y-95801009D01*
X121088095Y-95801009D02*
X121135714Y-95753390D01*
X121135714Y-95753390D02*
X121230952Y-95705771D01*
X121230952Y-95705771D02*
X121421428Y-95705771D01*
X121421428Y-95705771D02*
X121516666Y-95753390D01*
X121516666Y-95753390D02*
X121564285Y-95801009D01*
X121564285Y-95801009D02*
X121611904Y-95896247D01*
X120707142Y-95324819D02*
X120040476Y-95324819D01*
X120040476Y-95324819D02*
X120469047Y-96324819D01*
X45816666Y-155679580D02*
X45864285Y-155727200D01*
X45864285Y-155727200D02*
X46007142Y-155774819D01*
X46007142Y-155774819D02*
X46102380Y-155774819D01*
X46102380Y-155774819D02*
X46245237Y-155727200D01*
X46245237Y-155727200D02*
X46340475Y-155631961D01*
X46340475Y-155631961D02*
X46388094Y-155536723D01*
X46388094Y-155536723D02*
X46435713Y-155346247D01*
X46435713Y-155346247D02*
X46435713Y-155203390D01*
X46435713Y-155203390D02*
X46388094Y-155012914D01*
X46388094Y-155012914D02*
X46340475Y-154917676D01*
X46340475Y-154917676D02*
X46245237Y-154822438D01*
X46245237Y-154822438D02*
X46102380Y-154774819D01*
X46102380Y-154774819D02*
X46007142Y-154774819D01*
X46007142Y-154774819D02*
X45864285Y-154822438D01*
X45864285Y-154822438D02*
X45816666Y-154870057D01*
X45483332Y-154774819D02*
X44816666Y-154774819D01*
X44816666Y-154774819D02*
X45245237Y-155774819D01*
X46292857Y-147429580D02*
X46340476Y-147477200D01*
X46340476Y-147477200D02*
X46483333Y-147524819D01*
X46483333Y-147524819D02*
X46578571Y-147524819D01*
X46578571Y-147524819D02*
X46721428Y-147477200D01*
X46721428Y-147477200D02*
X46816666Y-147381961D01*
X46816666Y-147381961D02*
X46864285Y-147286723D01*
X46864285Y-147286723D02*
X46911904Y-147096247D01*
X46911904Y-147096247D02*
X46911904Y-146953390D01*
X46911904Y-146953390D02*
X46864285Y-146762914D01*
X46864285Y-146762914D02*
X46816666Y-146667676D01*
X46816666Y-146667676D02*
X46721428Y-146572438D01*
X46721428Y-146572438D02*
X46578571Y-146524819D01*
X46578571Y-146524819D02*
X46483333Y-146524819D01*
X46483333Y-146524819D02*
X46340476Y-146572438D01*
X46340476Y-146572438D02*
X46292857Y-146620057D01*
X45340476Y-147524819D02*
X45911904Y-147524819D01*
X45626190Y-147524819D02*
X45626190Y-146524819D01*
X45626190Y-146524819D02*
X45721428Y-146667676D01*
X45721428Y-146667676D02*
X45816666Y-146762914D01*
X45816666Y-146762914D02*
X45911904Y-146810533D01*
X44721428Y-146524819D02*
X44626190Y-146524819D01*
X44626190Y-146524819D02*
X44530952Y-146572438D01*
X44530952Y-146572438D02*
X44483333Y-146620057D01*
X44483333Y-146620057D02*
X44435714Y-146715295D01*
X44435714Y-146715295D02*
X44388095Y-146905771D01*
X44388095Y-146905771D02*
X44388095Y-147143866D01*
X44388095Y-147143866D02*
X44435714Y-147334342D01*
X44435714Y-147334342D02*
X44483333Y-147429580D01*
X44483333Y-147429580D02*
X44530952Y-147477200D01*
X44530952Y-147477200D02*
X44626190Y-147524819D01*
X44626190Y-147524819D02*
X44721428Y-147524819D01*
X44721428Y-147524819D02*
X44816666Y-147477200D01*
X44816666Y-147477200D02*
X44864285Y-147429580D01*
X44864285Y-147429580D02*
X44911904Y-147334342D01*
X44911904Y-147334342D02*
X44959523Y-147143866D01*
X44959523Y-147143866D02*
X44959523Y-146905771D01*
X44959523Y-146905771D02*
X44911904Y-146715295D01*
X44911904Y-146715295D02*
X44864285Y-146620057D01*
X44864285Y-146620057D02*
X44816666Y-146572438D01*
X44816666Y-146572438D02*
X44721428Y-146524819D01*
X66994285Y-133654819D02*
X66994285Y-132654819D01*
X66994285Y-132654819D02*
X66756190Y-132654819D01*
X66756190Y-132654819D02*
X66613333Y-132702438D01*
X66613333Y-132702438D02*
X66518095Y-132797676D01*
X66518095Y-132797676D02*
X66470476Y-132892914D01*
X66470476Y-132892914D02*
X66422857Y-133083390D01*
X66422857Y-133083390D02*
X66422857Y-133226247D01*
X66422857Y-133226247D02*
X66470476Y-133416723D01*
X66470476Y-133416723D02*
X66518095Y-133511961D01*
X66518095Y-133511961D02*
X66613333Y-133607200D01*
X66613333Y-133607200D02*
X66756190Y-133654819D01*
X66756190Y-133654819D02*
X66994285Y-133654819D01*
X66041904Y-132750057D02*
X65994285Y-132702438D01*
X65994285Y-132702438D02*
X65899047Y-132654819D01*
X65899047Y-132654819D02*
X65660952Y-132654819D01*
X65660952Y-132654819D02*
X65565714Y-132702438D01*
X65565714Y-132702438D02*
X65518095Y-132750057D01*
X65518095Y-132750057D02*
X65470476Y-132845295D01*
X65470476Y-132845295D02*
X65470476Y-132940533D01*
X65470476Y-132940533D02*
X65518095Y-133083390D01*
X65518095Y-133083390D02*
X66089523Y-133654819D01*
X66089523Y-133654819D02*
X65470476Y-133654819D01*
X64851428Y-132654819D02*
X64756190Y-132654819D01*
X64756190Y-132654819D02*
X64660952Y-132702438D01*
X64660952Y-132702438D02*
X64613333Y-132750057D01*
X64613333Y-132750057D02*
X64565714Y-132845295D01*
X64565714Y-132845295D02*
X64518095Y-133035771D01*
X64518095Y-133035771D02*
X64518095Y-133273866D01*
X64518095Y-133273866D02*
X64565714Y-133464342D01*
X64565714Y-133464342D02*
X64613333Y-133559580D01*
X64613333Y-133559580D02*
X64660952Y-133607200D01*
X64660952Y-133607200D02*
X64756190Y-133654819D01*
X64756190Y-133654819D02*
X64851428Y-133654819D01*
X64851428Y-133654819D02*
X64946666Y-133607200D01*
X64946666Y-133607200D02*
X64994285Y-133559580D01*
X64994285Y-133559580D02*
X65041904Y-133464342D01*
X65041904Y-133464342D02*
X65089523Y-133273866D01*
X65089523Y-133273866D02*
X65089523Y-133035771D01*
X65089523Y-133035771D02*
X65041904Y-132845295D01*
X65041904Y-132845295D02*
X64994285Y-132750057D01*
X64994285Y-132750057D02*
X64946666Y-132702438D01*
X64946666Y-132702438D02*
X64851428Y-132654819D01*
X60142857Y-130934819D02*
X60476190Y-130458628D01*
X60714285Y-130934819D02*
X60714285Y-129934819D01*
X60714285Y-129934819D02*
X60333333Y-129934819D01*
X60333333Y-129934819D02*
X60238095Y-129982438D01*
X60238095Y-129982438D02*
X60190476Y-130030057D01*
X60190476Y-130030057D02*
X60142857Y-130125295D01*
X60142857Y-130125295D02*
X60142857Y-130268152D01*
X60142857Y-130268152D02*
X60190476Y-130363390D01*
X60190476Y-130363390D02*
X60238095Y-130411009D01*
X60238095Y-130411009D02*
X60333333Y-130458628D01*
X60333333Y-130458628D02*
X60714285Y-130458628D01*
X59238095Y-129934819D02*
X59714285Y-129934819D01*
X59714285Y-129934819D02*
X59761904Y-130411009D01*
X59761904Y-130411009D02*
X59714285Y-130363390D01*
X59714285Y-130363390D02*
X59619047Y-130315771D01*
X59619047Y-130315771D02*
X59380952Y-130315771D01*
X59380952Y-130315771D02*
X59285714Y-130363390D01*
X59285714Y-130363390D02*
X59238095Y-130411009D01*
X59238095Y-130411009D02*
X59190476Y-130506247D01*
X59190476Y-130506247D02*
X59190476Y-130744342D01*
X59190476Y-130744342D02*
X59238095Y-130839580D01*
X59238095Y-130839580D02*
X59285714Y-130887200D01*
X59285714Y-130887200D02*
X59380952Y-130934819D01*
X59380952Y-130934819D02*
X59619047Y-130934819D01*
X59619047Y-130934819D02*
X59714285Y-130887200D01*
X59714285Y-130887200D02*
X59761904Y-130839580D01*
X58571428Y-129934819D02*
X58476190Y-129934819D01*
X58476190Y-129934819D02*
X58380952Y-129982438D01*
X58380952Y-129982438D02*
X58333333Y-130030057D01*
X58333333Y-130030057D02*
X58285714Y-130125295D01*
X58285714Y-130125295D02*
X58238095Y-130315771D01*
X58238095Y-130315771D02*
X58238095Y-130553866D01*
X58238095Y-130553866D02*
X58285714Y-130744342D01*
X58285714Y-130744342D02*
X58333333Y-130839580D01*
X58333333Y-130839580D02*
X58380952Y-130887200D01*
X58380952Y-130887200D02*
X58476190Y-130934819D01*
X58476190Y-130934819D02*
X58571428Y-130934819D01*
X58571428Y-130934819D02*
X58666666Y-130887200D01*
X58666666Y-130887200D02*
X58714285Y-130839580D01*
X58714285Y-130839580D02*
X58761904Y-130744342D01*
X58761904Y-130744342D02*
X58809523Y-130553866D01*
X58809523Y-130553866D02*
X58809523Y-130315771D01*
X58809523Y-130315771D02*
X58761904Y-130125295D01*
X58761904Y-130125295D02*
X58714285Y-130030057D01*
X58714285Y-130030057D02*
X58666666Y-129982438D01*
X58666666Y-129982438D02*
X58571428Y-129934819D01*
X60142857Y-138434819D02*
X60476190Y-137958628D01*
X60714285Y-138434819D02*
X60714285Y-137434819D01*
X60714285Y-137434819D02*
X60333333Y-137434819D01*
X60333333Y-137434819D02*
X60238095Y-137482438D01*
X60238095Y-137482438D02*
X60190476Y-137530057D01*
X60190476Y-137530057D02*
X60142857Y-137625295D01*
X60142857Y-137625295D02*
X60142857Y-137768152D01*
X60142857Y-137768152D02*
X60190476Y-137863390D01*
X60190476Y-137863390D02*
X60238095Y-137911009D01*
X60238095Y-137911009D02*
X60333333Y-137958628D01*
X60333333Y-137958628D02*
X60714285Y-137958628D01*
X59238095Y-137434819D02*
X59714285Y-137434819D01*
X59714285Y-137434819D02*
X59761904Y-137911009D01*
X59761904Y-137911009D02*
X59714285Y-137863390D01*
X59714285Y-137863390D02*
X59619047Y-137815771D01*
X59619047Y-137815771D02*
X59380952Y-137815771D01*
X59380952Y-137815771D02*
X59285714Y-137863390D01*
X59285714Y-137863390D02*
X59238095Y-137911009D01*
X59238095Y-137911009D02*
X59190476Y-138006247D01*
X59190476Y-138006247D02*
X59190476Y-138244342D01*
X59190476Y-138244342D02*
X59238095Y-138339580D01*
X59238095Y-138339580D02*
X59285714Y-138387200D01*
X59285714Y-138387200D02*
X59380952Y-138434819D01*
X59380952Y-138434819D02*
X59619047Y-138434819D01*
X59619047Y-138434819D02*
X59714285Y-138387200D01*
X59714285Y-138387200D02*
X59761904Y-138339580D01*
X58238095Y-138434819D02*
X58809523Y-138434819D01*
X58523809Y-138434819D02*
X58523809Y-137434819D01*
X58523809Y-137434819D02*
X58619047Y-137577676D01*
X58619047Y-137577676D02*
X58714285Y-137672914D01*
X58714285Y-137672914D02*
X58809523Y-137720533D01*
X60142857Y-132834819D02*
X60476190Y-132358628D01*
X60714285Y-132834819D02*
X60714285Y-131834819D01*
X60714285Y-131834819D02*
X60333333Y-131834819D01*
X60333333Y-131834819D02*
X60238095Y-131882438D01*
X60238095Y-131882438D02*
X60190476Y-131930057D01*
X60190476Y-131930057D02*
X60142857Y-132025295D01*
X60142857Y-132025295D02*
X60142857Y-132168152D01*
X60142857Y-132168152D02*
X60190476Y-132263390D01*
X60190476Y-132263390D02*
X60238095Y-132311009D01*
X60238095Y-132311009D02*
X60333333Y-132358628D01*
X60333333Y-132358628D02*
X60714285Y-132358628D01*
X59285714Y-132168152D02*
X59285714Y-132834819D01*
X59523809Y-131787200D02*
X59761904Y-132501485D01*
X59761904Y-132501485D02*
X59142857Y-132501485D01*
X58714285Y-132834819D02*
X58523809Y-132834819D01*
X58523809Y-132834819D02*
X58428571Y-132787200D01*
X58428571Y-132787200D02*
X58380952Y-132739580D01*
X58380952Y-132739580D02*
X58285714Y-132596723D01*
X58285714Y-132596723D02*
X58238095Y-132406247D01*
X58238095Y-132406247D02*
X58238095Y-132025295D01*
X58238095Y-132025295D02*
X58285714Y-131930057D01*
X58285714Y-131930057D02*
X58333333Y-131882438D01*
X58333333Y-131882438D02*
X58428571Y-131834819D01*
X58428571Y-131834819D02*
X58619047Y-131834819D01*
X58619047Y-131834819D02*
X58714285Y-131882438D01*
X58714285Y-131882438D02*
X58761904Y-131930057D01*
X58761904Y-131930057D02*
X58809523Y-132025295D01*
X58809523Y-132025295D02*
X58809523Y-132263390D01*
X58809523Y-132263390D02*
X58761904Y-132358628D01*
X58761904Y-132358628D02*
X58714285Y-132406247D01*
X58714285Y-132406247D02*
X58619047Y-132453866D01*
X58619047Y-132453866D02*
X58428571Y-132453866D01*
X58428571Y-132453866D02*
X58333333Y-132406247D01*
X58333333Y-132406247D02*
X58285714Y-132358628D01*
X58285714Y-132358628D02*
X58238095Y-132263390D01*
X60130357Y-136584819D02*
X60463690Y-136108628D01*
X60701785Y-136584819D02*
X60701785Y-135584819D01*
X60701785Y-135584819D02*
X60320833Y-135584819D01*
X60320833Y-135584819D02*
X60225595Y-135632438D01*
X60225595Y-135632438D02*
X60177976Y-135680057D01*
X60177976Y-135680057D02*
X60130357Y-135775295D01*
X60130357Y-135775295D02*
X60130357Y-135918152D01*
X60130357Y-135918152D02*
X60177976Y-136013390D01*
X60177976Y-136013390D02*
X60225595Y-136061009D01*
X60225595Y-136061009D02*
X60320833Y-136108628D01*
X60320833Y-136108628D02*
X60701785Y-136108628D01*
X59225595Y-135584819D02*
X59701785Y-135584819D01*
X59701785Y-135584819D02*
X59749404Y-136061009D01*
X59749404Y-136061009D02*
X59701785Y-136013390D01*
X59701785Y-136013390D02*
X59606547Y-135965771D01*
X59606547Y-135965771D02*
X59368452Y-135965771D01*
X59368452Y-135965771D02*
X59273214Y-136013390D01*
X59273214Y-136013390D02*
X59225595Y-136061009D01*
X59225595Y-136061009D02*
X59177976Y-136156247D01*
X59177976Y-136156247D02*
X59177976Y-136394342D01*
X59177976Y-136394342D02*
X59225595Y-136489580D01*
X59225595Y-136489580D02*
X59273214Y-136537200D01*
X59273214Y-136537200D02*
X59368452Y-136584819D01*
X59368452Y-136584819D02*
X59606547Y-136584819D01*
X59606547Y-136584819D02*
X59701785Y-136537200D01*
X59701785Y-136537200D02*
X59749404Y-136489580D01*
X58320833Y-135918152D02*
X58320833Y-136584819D01*
X58558928Y-135537200D02*
X58797023Y-136251485D01*
X58797023Y-136251485D02*
X58177976Y-136251485D01*
X73054819Y-141535714D02*
X72054819Y-141535714D01*
X72054819Y-141535714D02*
X72054819Y-141773809D01*
X72054819Y-141773809D02*
X72102438Y-141916666D01*
X72102438Y-141916666D02*
X72197676Y-142011904D01*
X72197676Y-142011904D02*
X72292914Y-142059523D01*
X72292914Y-142059523D02*
X72483390Y-142107142D01*
X72483390Y-142107142D02*
X72626247Y-142107142D01*
X72626247Y-142107142D02*
X72816723Y-142059523D01*
X72816723Y-142059523D02*
X72911961Y-142011904D01*
X72911961Y-142011904D02*
X73007200Y-141916666D01*
X73007200Y-141916666D02*
X73054819Y-141773809D01*
X73054819Y-141773809D02*
X73054819Y-141535714D01*
X72150057Y-142488095D02*
X72102438Y-142535714D01*
X72102438Y-142535714D02*
X72054819Y-142630952D01*
X72054819Y-142630952D02*
X72054819Y-142869047D01*
X72054819Y-142869047D02*
X72102438Y-142964285D01*
X72102438Y-142964285D02*
X72150057Y-143011904D01*
X72150057Y-143011904D02*
X72245295Y-143059523D01*
X72245295Y-143059523D02*
X72340533Y-143059523D01*
X72340533Y-143059523D02*
X72483390Y-143011904D01*
X72483390Y-143011904D02*
X73054819Y-142440476D01*
X73054819Y-142440476D02*
X73054819Y-143059523D01*
X73054819Y-143535714D02*
X73054819Y-143726190D01*
X73054819Y-143726190D02*
X73007200Y-143821428D01*
X73007200Y-143821428D02*
X72959580Y-143869047D01*
X72959580Y-143869047D02*
X72816723Y-143964285D01*
X72816723Y-143964285D02*
X72626247Y-144011904D01*
X72626247Y-144011904D02*
X72245295Y-144011904D01*
X72245295Y-144011904D02*
X72150057Y-143964285D01*
X72150057Y-143964285D02*
X72102438Y-143916666D01*
X72102438Y-143916666D02*
X72054819Y-143821428D01*
X72054819Y-143821428D02*
X72054819Y-143630952D01*
X72054819Y-143630952D02*
X72102438Y-143535714D01*
X72102438Y-143535714D02*
X72150057Y-143488095D01*
X72150057Y-143488095D02*
X72245295Y-143440476D01*
X72245295Y-143440476D02*
X72483390Y-143440476D01*
X72483390Y-143440476D02*
X72578628Y-143488095D01*
X72578628Y-143488095D02*
X72626247Y-143535714D01*
X72626247Y-143535714D02*
X72673866Y-143630952D01*
X72673866Y-143630952D02*
X72673866Y-143821428D01*
X72673866Y-143821428D02*
X72626247Y-143916666D01*
X72626247Y-143916666D02*
X72578628Y-143964285D01*
X72578628Y-143964285D02*
X72483390Y-144011904D01*
X121892857Y-147424819D02*
X122226190Y-146948628D01*
X122464285Y-147424819D02*
X122464285Y-146424819D01*
X122464285Y-146424819D02*
X122083333Y-146424819D01*
X122083333Y-146424819D02*
X121988095Y-146472438D01*
X121988095Y-146472438D02*
X121940476Y-146520057D01*
X121940476Y-146520057D02*
X121892857Y-146615295D01*
X121892857Y-146615295D02*
X121892857Y-146758152D01*
X121892857Y-146758152D02*
X121940476Y-146853390D01*
X121940476Y-146853390D02*
X121988095Y-146901009D01*
X121988095Y-146901009D02*
X122083333Y-146948628D01*
X122083333Y-146948628D02*
X122464285Y-146948628D01*
X120988095Y-146424819D02*
X121464285Y-146424819D01*
X121464285Y-146424819D02*
X121511904Y-146901009D01*
X121511904Y-146901009D02*
X121464285Y-146853390D01*
X121464285Y-146853390D02*
X121369047Y-146805771D01*
X121369047Y-146805771D02*
X121130952Y-146805771D01*
X121130952Y-146805771D02*
X121035714Y-146853390D01*
X121035714Y-146853390D02*
X120988095Y-146901009D01*
X120988095Y-146901009D02*
X120940476Y-146996247D01*
X120940476Y-146996247D02*
X120940476Y-147234342D01*
X120940476Y-147234342D02*
X120988095Y-147329580D01*
X120988095Y-147329580D02*
X121035714Y-147377200D01*
X121035714Y-147377200D02*
X121130952Y-147424819D01*
X121130952Y-147424819D02*
X121369047Y-147424819D01*
X121369047Y-147424819D02*
X121464285Y-147377200D01*
X121464285Y-147377200D02*
X121511904Y-147329580D01*
X120083333Y-146424819D02*
X120273809Y-146424819D01*
X120273809Y-146424819D02*
X120369047Y-146472438D01*
X120369047Y-146472438D02*
X120416666Y-146520057D01*
X120416666Y-146520057D02*
X120511904Y-146662914D01*
X120511904Y-146662914D02*
X120559523Y-146853390D01*
X120559523Y-146853390D02*
X120559523Y-147234342D01*
X120559523Y-147234342D02*
X120511904Y-147329580D01*
X120511904Y-147329580D02*
X120464285Y-147377200D01*
X120464285Y-147377200D02*
X120369047Y-147424819D01*
X120369047Y-147424819D02*
X120178571Y-147424819D01*
X120178571Y-147424819D02*
X120083333Y-147377200D01*
X120083333Y-147377200D02*
X120035714Y-147329580D01*
X120035714Y-147329580D02*
X119988095Y-147234342D01*
X119988095Y-147234342D02*
X119988095Y-146996247D01*
X119988095Y-146996247D02*
X120035714Y-146901009D01*
X120035714Y-146901009D02*
X120083333Y-146853390D01*
X120083333Y-146853390D02*
X120178571Y-146805771D01*
X120178571Y-146805771D02*
X120369047Y-146805771D01*
X120369047Y-146805771D02*
X120464285Y-146853390D01*
X120464285Y-146853390D02*
X120511904Y-146901009D01*
X120511904Y-146901009D02*
X120559523Y-146996247D01*
X46342857Y-141474819D02*
X46676190Y-140998628D01*
X46914285Y-141474819D02*
X46914285Y-140474819D01*
X46914285Y-140474819D02*
X46533333Y-140474819D01*
X46533333Y-140474819D02*
X46438095Y-140522438D01*
X46438095Y-140522438D02*
X46390476Y-140570057D01*
X46390476Y-140570057D02*
X46342857Y-140665295D01*
X46342857Y-140665295D02*
X46342857Y-140808152D01*
X46342857Y-140808152D02*
X46390476Y-140903390D01*
X46390476Y-140903390D02*
X46438095Y-140951009D01*
X46438095Y-140951009D02*
X46533333Y-140998628D01*
X46533333Y-140998628D02*
X46914285Y-140998628D01*
X45961904Y-140570057D02*
X45914285Y-140522438D01*
X45914285Y-140522438D02*
X45819047Y-140474819D01*
X45819047Y-140474819D02*
X45580952Y-140474819D01*
X45580952Y-140474819D02*
X45485714Y-140522438D01*
X45485714Y-140522438D02*
X45438095Y-140570057D01*
X45438095Y-140570057D02*
X45390476Y-140665295D01*
X45390476Y-140665295D02*
X45390476Y-140760533D01*
X45390476Y-140760533D02*
X45438095Y-140903390D01*
X45438095Y-140903390D02*
X46009523Y-141474819D01*
X46009523Y-141474819D02*
X45390476Y-141474819D01*
X44771428Y-140474819D02*
X44676190Y-140474819D01*
X44676190Y-140474819D02*
X44580952Y-140522438D01*
X44580952Y-140522438D02*
X44533333Y-140570057D01*
X44533333Y-140570057D02*
X44485714Y-140665295D01*
X44485714Y-140665295D02*
X44438095Y-140855771D01*
X44438095Y-140855771D02*
X44438095Y-141093866D01*
X44438095Y-141093866D02*
X44485714Y-141284342D01*
X44485714Y-141284342D02*
X44533333Y-141379580D01*
X44533333Y-141379580D02*
X44580952Y-141427200D01*
X44580952Y-141427200D02*
X44676190Y-141474819D01*
X44676190Y-141474819D02*
X44771428Y-141474819D01*
X44771428Y-141474819D02*
X44866666Y-141427200D01*
X44866666Y-141427200D02*
X44914285Y-141379580D01*
X44914285Y-141379580D02*
X44961904Y-141284342D01*
X44961904Y-141284342D02*
X45009523Y-141093866D01*
X45009523Y-141093866D02*
X45009523Y-140855771D01*
X45009523Y-140855771D02*
X44961904Y-140665295D01*
X44961904Y-140665295D02*
X44914285Y-140570057D01*
X44914285Y-140570057D02*
X44866666Y-140522438D01*
X44866666Y-140522438D02*
X44771428Y-140474819D01*
X63166666Y-144139580D02*
X63214285Y-144187200D01*
X63214285Y-144187200D02*
X63357142Y-144234819D01*
X63357142Y-144234819D02*
X63452380Y-144234819D01*
X63452380Y-144234819D02*
X63595237Y-144187200D01*
X63595237Y-144187200D02*
X63690475Y-144091961D01*
X63690475Y-144091961D02*
X63738094Y-143996723D01*
X63738094Y-143996723D02*
X63785713Y-143806247D01*
X63785713Y-143806247D02*
X63785713Y-143663390D01*
X63785713Y-143663390D02*
X63738094Y-143472914D01*
X63738094Y-143472914D02*
X63690475Y-143377676D01*
X63690475Y-143377676D02*
X63595237Y-143282438D01*
X63595237Y-143282438D02*
X63452380Y-143234819D01*
X63452380Y-143234819D02*
X63357142Y-143234819D01*
X63357142Y-143234819D02*
X63214285Y-143282438D01*
X63214285Y-143282438D02*
X63166666Y-143330057D01*
X62309523Y-143234819D02*
X62499999Y-143234819D01*
X62499999Y-143234819D02*
X62595237Y-143282438D01*
X62595237Y-143282438D02*
X62642856Y-143330057D01*
X62642856Y-143330057D02*
X62738094Y-143472914D01*
X62738094Y-143472914D02*
X62785713Y-143663390D01*
X62785713Y-143663390D02*
X62785713Y-144044342D01*
X62785713Y-144044342D02*
X62738094Y-144139580D01*
X62738094Y-144139580D02*
X62690475Y-144187200D01*
X62690475Y-144187200D02*
X62595237Y-144234819D01*
X62595237Y-144234819D02*
X62404761Y-144234819D01*
X62404761Y-144234819D02*
X62309523Y-144187200D01*
X62309523Y-144187200D02*
X62261904Y-144139580D01*
X62261904Y-144139580D02*
X62214285Y-144044342D01*
X62214285Y-144044342D02*
X62214285Y-143806247D01*
X62214285Y-143806247D02*
X62261904Y-143711009D01*
X62261904Y-143711009D02*
X62309523Y-143663390D01*
X62309523Y-143663390D02*
X62404761Y-143615771D01*
X62404761Y-143615771D02*
X62595237Y-143615771D01*
X62595237Y-143615771D02*
X62690475Y-143663390D01*
X62690475Y-143663390D02*
X62738094Y-143711009D01*
X62738094Y-143711009D02*
X62785713Y-143806247D01*
X60142857Y-140354819D02*
X60476190Y-139878628D01*
X60714285Y-140354819D02*
X60714285Y-139354819D01*
X60714285Y-139354819D02*
X60333333Y-139354819D01*
X60333333Y-139354819D02*
X60238095Y-139402438D01*
X60238095Y-139402438D02*
X60190476Y-139450057D01*
X60190476Y-139450057D02*
X60142857Y-139545295D01*
X60142857Y-139545295D02*
X60142857Y-139688152D01*
X60142857Y-139688152D02*
X60190476Y-139783390D01*
X60190476Y-139783390D02*
X60238095Y-139831009D01*
X60238095Y-139831009D02*
X60333333Y-139878628D01*
X60333333Y-139878628D02*
X60714285Y-139878628D01*
X59238095Y-139354819D02*
X59714285Y-139354819D01*
X59714285Y-139354819D02*
X59761904Y-139831009D01*
X59761904Y-139831009D02*
X59714285Y-139783390D01*
X59714285Y-139783390D02*
X59619047Y-139735771D01*
X59619047Y-139735771D02*
X59380952Y-139735771D01*
X59380952Y-139735771D02*
X59285714Y-139783390D01*
X59285714Y-139783390D02*
X59238095Y-139831009D01*
X59238095Y-139831009D02*
X59190476Y-139926247D01*
X59190476Y-139926247D02*
X59190476Y-140164342D01*
X59190476Y-140164342D02*
X59238095Y-140259580D01*
X59238095Y-140259580D02*
X59285714Y-140307200D01*
X59285714Y-140307200D02*
X59380952Y-140354819D01*
X59380952Y-140354819D02*
X59619047Y-140354819D01*
X59619047Y-140354819D02*
X59714285Y-140307200D01*
X59714285Y-140307200D02*
X59761904Y-140259580D01*
X58857142Y-139354819D02*
X58238095Y-139354819D01*
X58238095Y-139354819D02*
X58571428Y-139735771D01*
X58571428Y-139735771D02*
X58428571Y-139735771D01*
X58428571Y-139735771D02*
X58333333Y-139783390D01*
X58333333Y-139783390D02*
X58285714Y-139831009D01*
X58285714Y-139831009D02*
X58238095Y-139926247D01*
X58238095Y-139926247D02*
X58238095Y-140164342D01*
X58238095Y-140164342D02*
X58285714Y-140259580D01*
X58285714Y-140259580D02*
X58333333Y-140307200D01*
X58333333Y-140307200D02*
X58428571Y-140354819D01*
X58428571Y-140354819D02*
X58714285Y-140354819D01*
X58714285Y-140354819D02*
X58809523Y-140307200D01*
X58809523Y-140307200D02*
X58857142Y-140259580D01*
X74892857Y-147039580D02*
X74940476Y-147087200D01*
X74940476Y-147087200D02*
X75083333Y-147134819D01*
X75083333Y-147134819D02*
X75178571Y-147134819D01*
X75178571Y-147134819D02*
X75321428Y-147087200D01*
X75321428Y-147087200D02*
X75416666Y-146991961D01*
X75416666Y-146991961D02*
X75464285Y-146896723D01*
X75464285Y-146896723D02*
X75511904Y-146706247D01*
X75511904Y-146706247D02*
X75511904Y-146563390D01*
X75511904Y-146563390D02*
X75464285Y-146372914D01*
X75464285Y-146372914D02*
X75416666Y-146277676D01*
X75416666Y-146277676D02*
X75321428Y-146182438D01*
X75321428Y-146182438D02*
X75178571Y-146134819D01*
X75178571Y-146134819D02*
X75083333Y-146134819D01*
X75083333Y-146134819D02*
X74940476Y-146182438D01*
X74940476Y-146182438D02*
X74892857Y-146230057D01*
X73988095Y-146134819D02*
X74464285Y-146134819D01*
X74464285Y-146134819D02*
X74511904Y-146611009D01*
X74511904Y-146611009D02*
X74464285Y-146563390D01*
X74464285Y-146563390D02*
X74369047Y-146515771D01*
X74369047Y-146515771D02*
X74130952Y-146515771D01*
X74130952Y-146515771D02*
X74035714Y-146563390D01*
X74035714Y-146563390D02*
X73988095Y-146611009D01*
X73988095Y-146611009D02*
X73940476Y-146706247D01*
X73940476Y-146706247D02*
X73940476Y-146944342D01*
X73940476Y-146944342D02*
X73988095Y-147039580D01*
X73988095Y-147039580D02*
X74035714Y-147087200D01*
X74035714Y-147087200D02*
X74130952Y-147134819D01*
X74130952Y-147134819D02*
X74369047Y-147134819D01*
X74369047Y-147134819D02*
X74464285Y-147087200D01*
X74464285Y-147087200D02*
X74511904Y-147039580D01*
X73464285Y-147134819D02*
X73273809Y-147134819D01*
X73273809Y-147134819D02*
X73178571Y-147087200D01*
X73178571Y-147087200D02*
X73130952Y-147039580D01*
X73130952Y-147039580D02*
X73035714Y-146896723D01*
X73035714Y-146896723D02*
X72988095Y-146706247D01*
X72988095Y-146706247D02*
X72988095Y-146325295D01*
X72988095Y-146325295D02*
X73035714Y-146230057D01*
X73035714Y-146230057D02*
X73083333Y-146182438D01*
X73083333Y-146182438D02*
X73178571Y-146134819D01*
X73178571Y-146134819D02*
X73369047Y-146134819D01*
X73369047Y-146134819D02*
X73464285Y-146182438D01*
X73464285Y-146182438D02*
X73511904Y-146230057D01*
X73511904Y-146230057D02*
X73559523Y-146325295D01*
X73559523Y-146325295D02*
X73559523Y-146563390D01*
X73559523Y-146563390D02*
X73511904Y-146658628D01*
X73511904Y-146658628D02*
X73464285Y-146706247D01*
X73464285Y-146706247D02*
X73369047Y-146753866D01*
X73369047Y-146753866D02*
X73178571Y-146753866D01*
X73178571Y-146753866D02*
X73083333Y-146706247D01*
X73083333Y-146706247D02*
X73035714Y-146658628D01*
X73035714Y-146658628D02*
X72988095Y-146563390D01*
X66991785Y-131154819D02*
X66991785Y-130154819D01*
X66991785Y-130154819D02*
X66753690Y-130154819D01*
X66753690Y-130154819D02*
X66610833Y-130202438D01*
X66610833Y-130202438D02*
X66515595Y-130297676D01*
X66515595Y-130297676D02*
X66467976Y-130392914D01*
X66467976Y-130392914D02*
X66420357Y-130583390D01*
X66420357Y-130583390D02*
X66420357Y-130726247D01*
X66420357Y-130726247D02*
X66467976Y-130916723D01*
X66467976Y-130916723D02*
X66515595Y-131011961D01*
X66515595Y-131011961D02*
X66610833Y-131107200D01*
X66610833Y-131107200D02*
X66753690Y-131154819D01*
X66753690Y-131154819D02*
X66991785Y-131154819D01*
X66039404Y-130250057D02*
X65991785Y-130202438D01*
X65991785Y-130202438D02*
X65896547Y-130154819D01*
X65896547Y-130154819D02*
X65658452Y-130154819D01*
X65658452Y-130154819D02*
X65563214Y-130202438D01*
X65563214Y-130202438D02*
X65515595Y-130250057D01*
X65515595Y-130250057D02*
X65467976Y-130345295D01*
X65467976Y-130345295D02*
X65467976Y-130440533D01*
X65467976Y-130440533D02*
X65515595Y-130583390D01*
X65515595Y-130583390D02*
X66087023Y-131154819D01*
X66087023Y-131154819D02*
X65467976Y-131154819D01*
X65087023Y-130250057D02*
X65039404Y-130202438D01*
X65039404Y-130202438D02*
X64944166Y-130154819D01*
X64944166Y-130154819D02*
X64706071Y-130154819D01*
X64706071Y-130154819D02*
X64610833Y-130202438D01*
X64610833Y-130202438D02*
X64563214Y-130250057D01*
X64563214Y-130250057D02*
X64515595Y-130345295D01*
X64515595Y-130345295D02*
X64515595Y-130440533D01*
X64515595Y-130440533D02*
X64563214Y-130583390D01*
X64563214Y-130583390D02*
X65134642Y-131154819D01*
X65134642Y-131154819D02*
X64515595Y-131154819D01*
X68089580Y-143045833D02*
X68137200Y-142998214D01*
X68137200Y-142998214D02*
X68184819Y-142855357D01*
X68184819Y-142855357D02*
X68184819Y-142760119D01*
X68184819Y-142760119D02*
X68137200Y-142617262D01*
X68137200Y-142617262D02*
X68041961Y-142522024D01*
X68041961Y-142522024D02*
X67946723Y-142474405D01*
X67946723Y-142474405D02*
X67756247Y-142426786D01*
X67756247Y-142426786D02*
X67613390Y-142426786D01*
X67613390Y-142426786D02*
X67422914Y-142474405D01*
X67422914Y-142474405D02*
X67327676Y-142522024D01*
X67327676Y-142522024D02*
X67232438Y-142617262D01*
X67232438Y-142617262D02*
X67184819Y-142760119D01*
X67184819Y-142760119D02*
X67184819Y-142855357D01*
X67184819Y-142855357D02*
X67232438Y-142998214D01*
X67232438Y-142998214D02*
X67280057Y-143045833D01*
X67613390Y-143617262D02*
X67565771Y-143522024D01*
X67565771Y-143522024D02*
X67518152Y-143474405D01*
X67518152Y-143474405D02*
X67422914Y-143426786D01*
X67422914Y-143426786D02*
X67375295Y-143426786D01*
X67375295Y-143426786D02*
X67280057Y-143474405D01*
X67280057Y-143474405D02*
X67232438Y-143522024D01*
X67232438Y-143522024D02*
X67184819Y-143617262D01*
X67184819Y-143617262D02*
X67184819Y-143807738D01*
X67184819Y-143807738D02*
X67232438Y-143902976D01*
X67232438Y-143902976D02*
X67280057Y-143950595D01*
X67280057Y-143950595D02*
X67375295Y-143998214D01*
X67375295Y-143998214D02*
X67422914Y-143998214D01*
X67422914Y-143998214D02*
X67518152Y-143950595D01*
X67518152Y-143950595D02*
X67565771Y-143902976D01*
X67565771Y-143902976D02*
X67613390Y-143807738D01*
X67613390Y-143807738D02*
X67613390Y-143617262D01*
X67613390Y-143617262D02*
X67661009Y-143522024D01*
X67661009Y-143522024D02*
X67708628Y-143474405D01*
X67708628Y-143474405D02*
X67803866Y-143426786D01*
X67803866Y-143426786D02*
X67994342Y-143426786D01*
X67994342Y-143426786D02*
X68089580Y-143474405D01*
X68089580Y-143474405D02*
X68137200Y-143522024D01*
X68137200Y-143522024D02*
X68184819Y-143617262D01*
X68184819Y-143617262D02*
X68184819Y-143807738D01*
X68184819Y-143807738D02*
X68137200Y-143902976D01*
X68137200Y-143902976D02*
X68089580Y-143950595D01*
X68089580Y-143950595D02*
X67994342Y-143998214D01*
X67994342Y-143998214D02*
X67803866Y-143998214D01*
X67803866Y-143998214D02*
X67708628Y-143950595D01*
X67708628Y-143950595D02*
X67661009Y-143902976D01*
X67661009Y-143902976D02*
X67613390Y-143807738D01*
X44161009Y-156916666D02*
X44161009Y-156583333D01*
X44684819Y-156583333D02*
X43684819Y-156583333D01*
X43684819Y-156583333D02*
X43684819Y-157059523D01*
X43684819Y-157345238D02*
X43684819Y-157964285D01*
X43684819Y-157964285D02*
X44065771Y-157630952D01*
X44065771Y-157630952D02*
X44065771Y-157773809D01*
X44065771Y-157773809D02*
X44113390Y-157869047D01*
X44113390Y-157869047D02*
X44161009Y-157916666D01*
X44161009Y-157916666D02*
X44256247Y-157964285D01*
X44256247Y-157964285D02*
X44494342Y-157964285D01*
X44494342Y-157964285D02*
X44589580Y-157916666D01*
X44589580Y-157916666D02*
X44637200Y-157869047D01*
X44637200Y-157869047D02*
X44684819Y-157773809D01*
X44684819Y-157773809D02*
X44684819Y-157488095D01*
X44684819Y-157488095D02*
X44637200Y-157392857D01*
X44637200Y-157392857D02*
X44589580Y-157345238D01*
X60742857Y-157624819D02*
X61076190Y-157148628D01*
X61314285Y-157624819D02*
X61314285Y-156624819D01*
X61314285Y-156624819D02*
X60933333Y-156624819D01*
X60933333Y-156624819D02*
X60838095Y-156672438D01*
X60838095Y-156672438D02*
X60790476Y-156720057D01*
X60790476Y-156720057D02*
X60742857Y-156815295D01*
X60742857Y-156815295D02*
X60742857Y-156958152D01*
X60742857Y-156958152D02*
X60790476Y-157053390D01*
X60790476Y-157053390D02*
X60838095Y-157101009D01*
X60838095Y-157101009D02*
X60933333Y-157148628D01*
X60933333Y-157148628D02*
X61314285Y-157148628D01*
X60361904Y-156720057D02*
X60314285Y-156672438D01*
X60314285Y-156672438D02*
X60219047Y-156624819D01*
X60219047Y-156624819D02*
X59980952Y-156624819D01*
X59980952Y-156624819D02*
X59885714Y-156672438D01*
X59885714Y-156672438D02*
X59838095Y-156720057D01*
X59838095Y-156720057D02*
X59790476Y-156815295D01*
X59790476Y-156815295D02*
X59790476Y-156910533D01*
X59790476Y-156910533D02*
X59838095Y-157053390D01*
X59838095Y-157053390D02*
X60409523Y-157624819D01*
X60409523Y-157624819D02*
X59790476Y-157624819D01*
X59409523Y-156720057D02*
X59361904Y-156672438D01*
X59361904Y-156672438D02*
X59266666Y-156624819D01*
X59266666Y-156624819D02*
X59028571Y-156624819D01*
X59028571Y-156624819D02*
X58933333Y-156672438D01*
X58933333Y-156672438D02*
X58885714Y-156720057D01*
X58885714Y-156720057D02*
X58838095Y-156815295D01*
X58838095Y-156815295D02*
X58838095Y-156910533D01*
X58838095Y-156910533D02*
X58885714Y-157053390D01*
X58885714Y-157053390D02*
X59457142Y-157624819D01*
X59457142Y-157624819D02*
X58838095Y-157624819D01*
X56574819Y-151088095D02*
X57384342Y-151088095D01*
X57384342Y-151088095D02*
X57479580Y-151135714D01*
X57479580Y-151135714D02*
X57527200Y-151183333D01*
X57527200Y-151183333D02*
X57574819Y-151278571D01*
X57574819Y-151278571D02*
X57574819Y-151469047D01*
X57574819Y-151469047D02*
X57527200Y-151564285D01*
X57527200Y-151564285D02*
X57479580Y-151611904D01*
X57479580Y-151611904D02*
X57384342Y-151659523D01*
X57384342Y-151659523D02*
X56574819Y-151659523D01*
X56670057Y-152088095D02*
X56622438Y-152135714D01*
X56622438Y-152135714D02*
X56574819Y-152230952D01*
X56574819Y-152230952D02*
X56574819Y-152469047D01*
X56574819Y-152469047D02*
X56622438Y-152564285D01*
X56622438Y-152564285D02*
X56670057Y-152611904D01*
X56670057Y-152611904D02*
X56765295Y-152659523D01*
X56765295Y-152659523D02*
X56860533Y-152659523D01*
X56860533Y-152659523D02*
X57003390Y-152611904D01*
X57003390Y-152611904D02*
X57574819Y-152040476D01*
X57574819Y-152040476D02*
X57574819Y-152659523D01*
X122042857Y-72674819D02*
X122376190Y-72198628D01*
X122614285Y-72674819D02*
X122614285Y-71674819D01*
X122614285Y-71674819D02*
X122233333Y-71674819D01*
X122233333Y-71674819D02*
X122138095Y-71722438D01*
X122138095Y-71722438D02*
X122090476Y-71770057D01*
X122090476Y-71770057D02*
X122042857Y-71865295D01*
X122042857Y-71865295D02*
X122042857Y-72008152D01*
X122042857Y-72008152D02*
X122090476Y-72103390D01*
X122090476Y-72103390D02*
X122138095Y-72151009D01*
X122138095Y-72151009D02*
X122233333Y-72198628D01*
X122233333Y-72198628D02*
X122614285Y-72198628D01*
X121709523Y-71674819D02*
X121090476Y-71674819D01*
X121090476Y-71674819D02*
X121423809Y-72055771D01*
X121423809Y-72055771D02*
X121280952Y-72055771D01*
X121280952Y-72055771D02*
X121185714Y-72103390D01*
X121185714Y-72103390D02*
X121138095Y-72151009D01*
X121138095Y-72151009D02*
X121090476Y-72246247D01*
X121090476Y-72246247D02*
X121090476Y-72484342D01*
X121090476Y-72484342D02*
X121138095Y-72579580D01*
X121138095Y-72579580D02*
X121185714Y-72627200D01*
X121185714Y-72627200D02*
X121280952Y-72674819D01*
X121280952Y-72674819D02*
X121566666Y-72674819D01*
X121566666Y-72674819D02*
X121661904Y-72627200D01*
X121661904Y-72627200D02*
X121709523Y-72579580D01*
X120233333Y-72008152D02*
X120233333Y-72674819D01*
X120471428Y-71627200D02*
X120709523Y-72341485D01*
X120709523Y-72341485D02*
X120090476Y-72341485D01*
X60142857Y-134734819D02*
X60476190Y-134258628D01*
X60714285Y-134734819D02*
X60714285Y-133734819D01*
X60714285Y-133734819D02*
X60333333Y-133734819D01*
X60333333Y-133734819D02*
X60238095Y-133782438D01*
X60238095Y-133782438D02*
X60190476Y-133830057D01*
X60190476Y-133830057D02*
X60142857Y-133925295D01*
X60142857Y-133925295D02*
X60142857Y-134068152D01*
X60142857Y-134068152D02*
X60190476Y-134163390D01*
X60190476Y-134163390D02*
X60238095Y-134211009D01*
X60238095Y-134211009D02*
X60333333Y-134258628D01*
X60333333Y-134258628D02*
X60714285Y-134258628D01*
X59285714Y-134068152D02*
X59285714Y-134734819D01*
X59523809Y-133687200D02*
X59761904Y-134401485D01*
X59761904Y-134401485D02*
X59142857Y-134401485D01*
X58619047Y-134163390D02*
X58714285Y-134115771D01*
X58714285Y-134115771D02*
X58761904Y-134068152D01*
X58761904Y-134068152D02*
X58809523Y-133972914D01*
X58809523Y-133972914D02*
X58809523Y-133925295D01*
X58809523Y-133925295D02*
X58761904Y-133830057D01*
X58761904Y-133830057D02*
X58714285Y-133782438D01*
X58714285Y-133782438D02*
X58619047Y-133734819D01*
X58619047Y-133734819D02*
X58428571Y-133734819D01*
X58428571Y-133734819D02*
X58333333Y-133782438D01*
X58333333Y-133782438D02*
X58285714Y-133830057D01*
X58285714Y-133830057D02*
X58238095Y-133925295D01*
X58238095Y-133925295D02*
X58238095Y-133972914D01*
X58238095Y-133972914D02*
X58285714Y-134068152D01*
X58285714Y-134068152D02*
X58333333Y-134115771D01*
X58333333Y-134115771D02*
X58428571Y-134163390D01*
X58428571Y-134163390D02*
X58619047Y-134163390D01*
X58619047Y-134163390D02*
X58714285Y-134211009D01*
X58714285Y-134211009D02*
X58761904Y-134258628D01*
X58761904Y-134258628D02*
X58809523Y-134353866D01*
X58809523Y-134353866D02*
X58809523Y-134544342D01*
X58809523Y-134544342D02*
X58761904Y-134639580D01*
X58761904Y-134639580D02*
X58714285Y-134687200D01*
X58714285Y-134687200D02*
X58619047Y-134734819D01*
X58619047Y-134734819D02*
X58428571Y-134734819D01*
X58428571Y-134734819D02*
X58333333Y-134687200D01*
X58333333Y-134687200D02*
X58285714Y-134639580D01*
X58285714Y-134639580D02*
X58238095Y-134544342D01*
X58238095Y-134544342D02*
X58238095Y-134353866D01*
X58238095Y-134353866D02*
X58285714Y-134258628D01*
X58285714Y-134258628D02*
X58333333Y-134211009D01*
X58333333Y-134211009D02*
X58428571Y-134163390D01*
X121992857Y-121749819D02*
X122326190Y-121273628D01*
X122564285Y-121749819D02*
X122564285Y-120749819D01*
X122564285Y-120749819D02*
X122183333Y-120749819D01*
X122183333Y-120749819D02*
X122088095Y-120797438D01*
X122088095Y-120797438D02*
X122040476Y-120845057D01*
X122040476Y-120845057D02*
X121992857Y-120940295D01*
X121992857Y-120940295D02*
X121992857Y-121083152D01*
X121992857Y-121083152D02*
X122040476Y-121178390D01*
X122040476Y-121178390D02*
X122088095Y-121226009D01*
X122088095Y-121226009D02*
X122183333Y-121273628D01*
X122183333Y-121273628D02*
X122564285Y-121273628D01*
X121659523Y-120749819D02*
X120992857Y-120749819D01*
X120992857Y-120749819D02*
X121421428Y-121749819D01*
X120469047Y-121178390D02*
X120564285Y-121130771D01*
X120564285Y-121130771D02*
X120611904Y-121083152D01*
X120611904Y-121083152D02*
X120659523Y-120987914D01*
X120659523Y-120987914D02*
X120659523Y-120940295D01*
X120659523Y-120940295D02*
X120611904Y-120845057D01*
X120611904Y-120845057D02*
X120564285Y-120797438D01*
X120564285Y-120797438D02*
X120469047Y-120749819D01*
X120469047Y-120749819D02*
X120278571Y-120749819D01*
X120278571Y-120749819D02*
X120183333Y-120797438D01*
X120183333Y-120797438D02*
X120135714Y-120845057D01*
X120135714Y-120845057D02*
X120088095Y-120940295D01*
X120088095Y-120940295D02*
X120088095Y-120987914D01*
X120088095Y-120987914D02*
X120135714Y-121083152D01*
X120135714Y-121083152D02*
X120183333Y-121130771D01*
X120183333Y-121130771D02*
X120278571Y-121178390D01*
X120278571Y-121178390D02*
X120469047Y-121178390D01*
X120469047Y-121178390D02*
X120564285Y-121226009D01*
X120564285Y-121226009D02*
X120611904Y-121273628D01*
X120611904Y-121273628D02*
X120659523Y-121368866D01*
X120659523Y-121368866D02*
X120659523Y-121559342D01*
X120659523Y-121559342D02*
X120611904Y-121654580D01*
X120611904Y-121654580D02*
X120564285Y-121702200D01*
X120564285Y-121702200D02*
X120469047Y-121749819D01*
X120469047Y-121749819D02*
X120278571Y-121749819D01*
X120278571Y-121749819D02*
X120183333Y-121702200D01*
X120183333Y-121702200D02*
X120135714Y-121654580D01*
X120135714Y-121654580D02*
X120088095Y-121559342D01*
X120088095Y-121559342D02*
X120088095Y-121368866D01*
X120088095Y-121368866D02*
X120135714Y-121273628D01*
X120135714Y-121273628D02*
X120183333Y-121226009D01*
X120183333Y-121226009D02*
X120278571Y-121178390D01*
%TO.C,Y1*%
D11*
X58125000Y-145460000D02*
X60725000Y-145460000D01*
X60910000Y-141990000D02*
X60910000Y-141790000D01*
X60910000Y-141790000D02*
X58125000Y-141790000D01*
%TO.C,R14*%
X45904724Y-158227500D02*
X45395276Y-158227500D01*
X45904724Y-159272500D02*
X45395276Y-159272500D01*
%TO.C,D23*%
X65277500Y-130250000D02*
X66637500Y-130250000D01*
X65277500Y-131050000D02*
X66637500Y-131050000D01*
X66637500Y-130250000D02*
X66637500Y-131050000D01*
%TO.C,F5*%
X41440000Y-149602064D02*
X41440000Y-148397936D01*
X43260000Y-149602064D02*
X43260000Y-148397936D01*
%TO.C,D25*%
X65277500Y-135250000D02*
X66637500Y-135250000D01*
X65277500Y-136050000D02*
X66637500Y-136050000D01*
X66637500Y-135250000D02*
X66637500Y-136050000D01*
%TO.C,C49*%
X73640000Y-150796267D02*
X73640000Y-150503733D01*
X74660000Y-150796267D02*
X74660000Y-150503733D01*
%TO.C,R9*%
X59754724Y-140377500D02*
X59245276Y-140377500D01*
X59754724Y-141422500D02*
X59245276Y-141422500D01*
%TO.C,C40*%
X70453733Y-144740000D02*
X70746267Y-144740000D01*
X70453733Y-145760000D02*
X70746267Y-145760000D01*
%TO.C,D35*%
X73315000Y-142015000D02*
X73315000Y-143485000D01*
X73965000Y-142015000D02*
X73315000Y-142015000D01*
X74285000Y-143485000D02*
X74615000Y-143485000D01*
X75585000Y-142015000D02*
X74935000Y-142015000D01*
X75585000Y-143485000D02*
X75585000Y-142015000D01*
X74610000Y-143930000D02*
X74420000Y-143790000D01*
X74420000Y-144070000D01*
X74610000Y-143930000D01*
G36*
X74610000Y-143930000D02*
G01*
X74420000Y-144070000D01*
X74420000Y-143790000D01*
X74610000Y-143930000D01*
G37*
%TO.C,D34*%
X76915000Y-142065000D02*
X76915000Y-143535000D01*
X77565000Y-142065000D02*
X76915000Y-142065000D01*
X77885000Y-143535000D02*
X78215000Y-143535000D01*
X79185000Y-142065000D02*
X78535000Y-142065000D01*
X79185000Y-143535000D02*
X79185000Y-142065000D01*
X78210000Y-143980000D02*
X78020000Y-143840000D01*
X78020000Y-144120000D01*
X78210000Y-143980000D01*
G36*
X78210000Y-143980000D02*
G01*
X78020000Y-144120000D01*
X78020000Y-143840000D01*
X78210000Y-143980000D01*
G37*
%TO.C,R8*%
X45942224Y-167227500D02*
X45432776Y-167227500D01*
X45942224Y-168272500D02*
X45432776Y-168272500D01*
%TO.C,C11*%
X45846267Y-139840000D02*
X45553733Y-139840000D01*
X45846267Y-140860000D02*
X45553733Y-140860000D01*
%TO.C,D21*%
X65277500Y-132750000D02*
X66637500Y-132750000D01*
X65277500Y-133550000D02*
X66637500Y-133550000D01*
X66637500Y-132750000D02*
X66637500Y-133550000D01*
%TO.C,F1*%
X41490000Y-166852064D02*
X41490000Y-165647936D01*
X43310000Y-166852064D02*
X43310000Y-165647936D01*
%TO.C,R21*%
X60354724Y-160277500D02*
X59845276Y-160277500D01*
X60354724Y-161322500D02*
X59845276Y-161322500D01*
%TO.C,C5*%
X45833767Y-164990000D02*
X45541233Y-164990000D01*
X45833767Y-166010000D02*
X45541233Y-166010000D01*
%TO.C,C58*%
X77753733Y-144740000D02*
X78046267Y-144740000D01*
X77753733Y-145760000D02*
X78046267Y-145760000D01*
%TO.C,D32*%
X75365000Y-150015000D02*
X75365000Y-151485000D01*
X75365000Y-151485000D02*
X76015000Y-151485000D01*
X76665000Y-150015000D02*
X76335000Y-150015000D01*
X76985000Y-151485000D02*
X77635000Y-151485000D01*
X77635000Y-151485000D02*
X77635000Y-150015000D01*
X76340000Y-149570000D02*
X76530000Y-149710000D01*
X76530000Y-149430000D01*
X76340000Y-149570000D01*
G36*
X76530000Y-149710000D02*
G01*
X76340000Y-149570000D01*
X76530000Y-149430000D01*
X76530000Y-149710000D01*
G37*
%TO.C,D27*%
X62465000Y-133035000D02*
X62465000Y-133365000D01*
X62465000Y-134335000D02*
X63935000Y-134335000D01*
X63935000Y-132065000D02*
X62465000Y-132065000D01*
X63935000Y-132715000D02*
X63935000Y-132065000D01*
X63935000Y-134335000D02*
X63935000Y-133685000D01*
X62020000Y-133360000D02*
X62160000Y-133170000D01*
X61880000Y-133170000D01*
X62020000Y-133360000D01*
G36*
X62020000Y-133360000D02*
G01*
X61880000Y-133170000D01*
X62160000Y-133170000D01*
X62020000Y-133360000D01*
G37*
%TO.C,D2*%
X62465000Y-134715000D02*
X62465000Y-135365000D01*
X62465000Y-136335000D02*
X62465000Y-136985000D01*
X62465000Y-136985000D02*
X63935000Y-136985000D01*
X63935000Y-134715000D02*
X62465000Y-134715000D01*
X63935000Y-136015000D02*
X63935000Y-135685000D01*
X64380000Y-135690000D02*
X64240000Y-135880000D01*
X64520000Y-135880000D01*
X64380000Y-135690000D01*
G36*
X64520000Y-135880000D02*
G01*
X64240000Y-135880000D01*
X64380000Y-135690000D01*
X64520000Y-135880000D01*
G37*
%TO.C,C4*%
X62853733Y-143840000D02*
X63146267Y-143840000D01*
X62853733Y-144860000D02*
X63146267Y-144860000D01*
%TO.C,D26*%
X62465000Y-138285000D02*
X62465000Y-138615000D01*
X62465000Y-139585000D02*
X63935000Y-139585000D01*
X63935000Y-137315000D02*
X62465000Y-137315000D01*
X63935000Y-137965000D02*
X63935000Y-137315000D01*
X63935000Y-139585000D02*
X63935000Y-138935000D01*
X62020000Y-138610000D02*
X62160000Y-138420000D01*
X61880000Y-138420000D01*
X62020000Y-138610000D01*
G36*
X62020000Y-138610000D02*
G01*
X61880000Y-138420000D01*
X62160000Y-138420000D01*
X62020000Y-138610000D01*
G37*
%TO.C,R17*%
X45904724Y-149977500D02*
X45395276Y-149977500D01*
X45904724Y-151022500D02*
X45395276Y-151022500D01*
%TO.C,D24*%
X65277500Y-136500000D02*
X66637500Y-136500000D01*
X65277500Y-137300000D02*
X66637500Y-137300000D01*
X66637500Y-136500000D02*
X66637500Y-137300000D01*
%TO.C,C9*%
X56290000Y-143646267D02*
X56290000Y-143353733D01*
X57310000Y-143646267D02*
X57310000Y-143353733D01*
%TO.C,F6*%
X41440000Y-141552064D02*
X41440000Y-140347936D01*
X43260000Y-141552064D02*
X43260000Y-140347936D01*
%TO.C,R67*%
X121604724Y-97822500D02*
X121095276Y-97822500D01*
X121604724Y-96777500D02*
X121095276Y-96777500D01*
%TO.C,C7*%
X45796267Y-156240000D02*
X45503733Y-156240000D01*
X45796267Y-157260000D02*
X45503733Y-157260000D01*
%TO.C,C10*%
X45796267Y-147990000D02*
X45503733Y-147990000D01*
X45796267Y-149010000D02*
X45503733Y-149010000D01*
%TO.C,D20*%
X65280000Y-134000000D02*
X66640000Y-134000000D01*
X65280000Y-134800000D02*
X66640000Y-134800000D01*
X66640000Y-134000000D02*
X66640000Y-134800000D01*
%TO.C,R50*%
X59245276Y-128527500D02*
X59754724Y-128527500D01*
X59245276Y-129572500D02*
X59754724Y-129572500D01*
%TO.C,R51*%
X59245276Y-136027500D02*
X59754724Y-136027500D01*
X59245276Y-137072500D02*
X59754724Y-137072500D01*
%TO.C,R49*%
X59245276Y-130427500D02*
X59754724Y-130427500D01*
X59245276Y-131472500D02*
X59754724Y-131472500D01*
%TO.C,R54*%
X59232776Y-134177500D02*
X59742224Y-134177500D01*
X59232776Y-135222500D02*
X59742224Y-135222500D01*
%TO.C,D29*%
X69665000Y-142015000D02*
X69665000Y-143485000D01*
X70315000Y-142015000D02*
X69665000Y-142015000D01*
X70635000Y-143485000D02*
X70965000Y-143485000D01*
X71935000Y-142015000D02*
X71285000Y-142015000D01*
X71935000Y-143485000D02*
X71935000Y-142015000D01*
X70960000Y-143930000D02*
X70770000Y-143790000D01*
X70770000Y-144070000D01*
X70960000Y-143930000D01*
G36*
X70960000Y-143930000D02*
G01*
X70770000Y-144070000D01*
X70770000Y-143790000D01*
X70960000Y-143930000D01*
G37*
%TO.C,R56*%
X121504724Y-147877500D02*
X120995276Y-147877500D01*
X121504724Y-148922500D02*
X120995276Y-148922500D01*
%TO.C,R20*%
X45954724Y-141927500D02*
X45445276Y-141927500D01*
X45954724Y-142972500D02*
X45445276Y-142972500D01*
%TO.C,C6*%
X62853733Y-141840000D02*
X63146267Y-141840000D01*
X62853733Y-142860000D02*
X63146267Y-142860000D01*
%TO.C,R53*%
X59245276Y-137927500D02*
X59754724Y-137927500D01*
X59245276Y-138972500D02*
X59754724Y-138972500D01*
%TO.C,C59*%
X74103733Y-144740000D02*
X74396267Y-144740000D01*
X74103733Y-145760000D02*
X74396267Y-145760000D01*
%TO.C,D22*%
X65277500Y-131500000D02*
X66637500Y-131500000D01*
X65277500Y-132300000D02*
X66637500Y-132300000D01*
X66637500Y-131500000D02*
X66637500Y-132300000D01*
%TO.C,C8*%
X65790000Y-143358767D02*
X65790000Y-143066233D01*
X66810000Y-143358767D02*
X66810000Y-143066233D01*
%TO.C,F3*%
X41490000Y-157852064D02*
X41490000Y-156647936D01*
X43310000Y-157852064D02*
X43310000Y-156647936D01*
%TO.C,R22*%
X60354724Y-158077500D02*
X59845276Y-158077500D01*
X60354724Y-159122500D02*
X59845276Y-159122500D01*
%TO.C,U2*%
X59390000Y-148240000D02*
X59390000Y-148540000D01*
X59390000Y-155160000D02*
X59390000Y-155460000D01*
X59390000Y-155460000D02*
X59690000Y-155460000D01*
X59690000Y-148240000D02*
X59390000Y-148240000D01*
X66310000Y-155460000D02*
X66610000Y-155460000D01*
X66610000Y-148240000D02*
X66310000Y-148240000D01*
X66610000Y-148540000D02*
X66610000Y-148240000D01*
X66610000Y-155460000D02*
X66610000Y-155160000D01*
X59680000Y-147600000D02*
X59210000Y-147260000D01*
X59210000Y-147940000D01*
X59680000Y-147600000D01*
G36*
X59680000Y-147600000D02*
G01*
X59210000Y-147940000D01*
X59210000Y-147260000D01*
X59680000Y-147600000D01*
G37*
%TO.C,R34*%
X121654724Y-73127500D02*
X121145276Y-73127500D01*
X121654724Y-74172500D02*
X121145276Y-74172500D01*
%TO.C,R48*%
X59245276Y-132327500D02*
X59754724Y-132327500D01*
X59245276Y-133372500D02*
X59754724Y-133372500D01*
%TO.C,R78*%
X121604724Y-122202500D02*
X121095276Y-122202500D01*
X121604724Y-123247500D02*
X121095276Y-123247500D01*
%TD*%
M02*
